<?xml version="1.0" encoding="UTF-8" standalone="no"?>
<!DOCTYPE svg PUBLIC "-//W3C//DTD SVG 1.1//EN" "http://www.w3.org/Graphics/SVG/1.1/DTD/svg11.dtd">
<svg version="1.1" xmlns="http://www.w3.org/2000/svg" xmlns:xlink="http://www.w3.org/1999/xlink" preserveAspectRatio="xMidYMid meet" viewBox="0 0 128 128" width="128" height="128"><defs><path d="M120 12.85C120 34.28 120 93.72 120 115.15C120 117.83 117.83 120 115.15 120C93.72 120 34.28 120 12.85 120C10.17 120 8 117.83 8 115.15C8 93.72 8 34.28 8 12.85C8 10.17 10.17 8 12.85 8C34.28 8 93.72 8 115.15 8C117.83 8 120 10.17 120 12.85Z" id="a9H8kFm96N"></path><path d="M18.36 44.46C17.72 43.53 17.95 42.25 18.89 41.61C22.52 39.11 31.73 32.78 35.36 30.28C36.3 29.64 37.58 29.87 38.22 30.81C40.79 34.52 47.34 43.98 49.91 47.7C50.56 48.63 50.32 49.91 49.39 50.55C45.76 53.05 36.55 59.38 32.92 61.88C31.98 62.52 30.7 62.29 30.05 61.35C27.48 57.64 20.94 48.18 18.36 44.46Z" id="a2kRmjlAcn"></path><path d="M14.16 42.57C13.51 41.64 13.75 40.36 14.68 39.72C18.31 37.22 27.52 30.89 31.15 28.39C32.09 27.75 33.37 27.98 34.02 28.92C36.59 32.63 43.13 42.09 45.71 45.81C46.35 46.74 46.12 48.02 45.18 48.66C41.55 51.16 32.34 57.49 28.71 59.99C27.77 60.63 26.49 60.4 25.85 59.46C23.28 55.75 16.73 46.29 14.16 42.57Z" id="arUi5YN7A"></path><path d="M99.72 35.09C99.55 34.59 99.84 34.07 100.33 33.93C102.46 33.33 107.93 31.8 110.06 31.2C110.57 31.06 111.1 31.34 111.27 31.85C111.93 33.83 113.6 38.89 114.25 40.87C114.42 41.36 114.13 41.89 113.64 42.03C111.51 42.63 106.04 44.16 103.91 44.76C103.4 44.9 102.87 44.61 102.7 44.11C102.04 42.12 100.37 37.07 99.72 35.09Z" id="atlF81TT1"></path><path d="M101.54 33.8C101.4 33.31 101.7 32.79 102.2 32.67C104.35 32.15 109.87 30.81 112.01 30.29C112.53 30.17 113.05 30.47 113.2 30.98C113.79 32.99 115.27 38.1 115.86 40.11C116 40.61 115.7 41.12 115.2 41.25C113.05 41.76 107.53 43.1 105.39 43.62C104.87 43.74 104.35 43.44 104.2 42.93C103.61 40.92 102.13 35.81 101.54 33.8Z" id="c1jneOV9AK"></path><path d="M122.91 0.02L123.13 0.04L123.36 0.07L123.57 0.11L123.79 0.16L124 0.22L124.21 0.28L124.41 0.36L124.61 0.44L124.81 0.52L125 0.62L125.19 0.72L125.38 0.83L125.56 0.95L125.73 1.07L125.9 1.2L126.06 1.33L126.22 1.48L126.38 1.62L126.52 1.78L126.67 1.94L126.8 2.1L126.93 2.27L127.05 2.44L127.17 2.62L127.28 2.81L127.38 3L127.48 3.19L127.56 3.39L127.64 3.59L127.72 3.79L127.78 4L127.84 4.21L127.89 4.43L127.93 4.64L127.96 4.87L127.98 5.09L128 5.32L128 5.54L128 122.46L128 122.68L127.98 122.91L127.96 123.13L127.93 123.36L127.89 123.57L127.84 123.79L127.78 124L127.72 124.21L127.64 124.41L127.56 124.61L127.48 124.81L127.38 125L127.28 125.19L127.17 125.38L127.05 125.56L126.93 125.73L126.8 125.9L126.67 126.06L126.52 126.22L126.38 126.38L126.22 126.52L126.06 126.67L125.9 126.8L125.73 126.93L125.56 127.05L125.38 127.17L125.19 127.28L125 127.38L124.81 127.48L124.61 127.56L124.41 127.64L124.21 127.72L124 127.78L123.79 127.84L123.57 127.89L123.36 127.93L123.13 127.96L122.91 127.98L122.68 128L122.46 128L5.54 128L5.32 128L5.09 127.98L4.87 127.96L4.64 127.93L4.43 127.89L4.21 127.84L4 127.78L3.79 127.72L3.59 127.64L3.39 127.56L3.19 127.48L3 127.38L2.81 127.28L2.62 127.17L2.44 127.05L2.27 126.93L2.1 126.8L1.94 126.67L1.78 126.52L1.62 126.38L1.48 126.22L1.33 126.06L1.2 125.9L1.07 125.73L0.95 125.56L0.83 125.38L0.72 125.19L0.62 125L0.52 124.81L0.44 124.61L0.36 124.41L0.28 124.21L0.22 124L0.16 123.79L0.11 123.57L0.07 123.36L0.04 123.13L0.02 122.91L0 122.68L0 122.46L0 5.54L0 5.32L0.02 5.09L0.04 4.87L0.07 4.64L0.11 4.43L0.16 4.21L0.22 4L0.28 3.79L0.36 3.59L0.44 3.39L0.52 3.19L0.62 3L0.72 2.81L0.83 2.62L0.95 2.44L1.07 2.27L1.2 2.1L1.33 1.94L1.48 1.78L1.62 1.62L1.78 1.48L1.94 1.33L2.1 1.2L2.27 1.07L2.44 0.95L2.62 0.83L2.81 0.72L3 0.62L3.19 0.52L3.39 0.44L3.59 0.36L3.79 0.28L4 0.22L4.21 0.16L4.43 0.11L4.64 0.07L4.87 0.04L5.09 0.02L5.32 0L5.54 0L122.46 0L122.68 0L122.91 0.02ZM12.65 8L12.45 8.01L12.26 8.03L12.06 8.06L11.87 8.1L11.69 8.14L11.5 8.19L11.32 8.24L11.14 8.31L10.96 8.38L10.79 8.46L10.62 8.54L10.46 8.63L10.3 8.72L10.14 8.83L9.99 8.93L9.84 9.05L9.69 9.16L9.56 9.29L9.42 9.42L9.29 9.55L9.17 9.69L9.05 9.84L8.94 9.98L8.83 10.14L8.73 10.29L8.63 10.45L8.54 10.62L8.46 10.79L8.38 10.96L8.31 11.14L8.25 11.32L8.19 11.5L8.14 11.68L8.1 11.87L8.06 12.06L8.04 12.26L8.02 12.45L8 12.65L8 12.85L8 115.15L8 115.35L8.02 115.54L8.04 115.74L8.06 115.93L8.1 116.12L8.14 116.31L8.19 116.5L8.25 116.68L8.31 116.86L8.38 117.03L8.46 117.21L8.54 117.38L8.63 117.54L8.73 117.7L8.83 117.86L8.94 118.01L9.05 118.16L9.17 118.3L9.29 118.44L9.42 118.58L9.56 118.71L9.69 118.83L9.84 118.95L9.99 119.06L10.14 119.17L10.3 119.27L10.46 119.37L10.62 119.46L10.79 119.54L10.96 119.62L11.14 119.69L11.32 119.75L11.5 119.81L11.69 119.86L11.87 119.9L12.06 119.93L12.26 119.96L12.45 119.98L12.65 119.99L12.85 120L115.15 120L115.35 119.99L115.55 119.98L115.74 119.96L115.94 119.93L116.13 119.9L116.31 119.86L116.5 119.81L116.68 119.75L116.86 119.69L117.04 119.62L117.21 119.54L117.38 119.46L117.54 119.37L117.7 119.27L117.86 119.17L118.01 119.06L118.16 118.95L118.31 118.83L118.44 118.71L118.58 118.58L118.71 118.44L118.83 118.3L118.95 118.16L119.06 118.01L119.17 117.86L119.27 117.7L119.37 117.54L119.46 117.38L119.54 117.21L119.62 117.03L119.69 116.86L119.75 116.68L119.81 116.5L119.86 116.31L119.9 116.12L119.94 115.93L119.96 115.74L119.98 115.54L120 115.35L120 115.15L120 12.85L120 12.65L119.98 12.45L119.96 12.26L119.94 12.06L119.9 11.87L119.86 11.68L119.81 11.5L119.75 11.32L119.69 11.14L119.62 10.96L119.54 10.79L119.46 10.62L119.37 10.45L119.27 10.29L119.17 10.14L119.06 9.98L118.95 9.84L118.83 9.69L118.71 9.55L118.58 9.42L118.44 9.29L118.31 9.16L118.16 9.05L118.01 8.93L117.86 8.83L117.7 8.72L117.54 8.63L117.38 8.54L117.21 8.46L117.04 8.38L116.86 8.31L116.68 8.24L116.5 8.19L116.31 8.14L116.13 8.1L115.94 8.06L115.74 8.03L115.55 8.01L115.35 8L115.15 8L12.85 8L12.65 8Z" id="j1uwX9sVam"></path><path d="M112.49 68.75C113.26 69.15 113.58 70.09 113.21 70.87C111.82 73.81 108.34 81.23 106.95 84.17C106.59 84.94 105.66 85.25 104.91 84.86C101.88 83.28 94.16 79.25 91.12 77.67C90.35 77.27 90.04 76.33 90.41 75.55C91.79 72.61 95.28 65.19 96.66 62.25C97.02 61.49 97.95 61.17 98.7 61.56C101.74 63.14 109.46 67.17 112.49 68.75Z" id="b52sGKZt"></path><path d="M114.38 68.42C115.15 68.82 115.47 69.76 115.1 70.54C113.72 73.48 110.23 80.9 108.85 83.84C108.48 84.61 107.56 84.92 106.8 84.53C103.77 82.95 96.05 78.92 93.02 77.34C92.25 76.94 91.93 76 92.3 75.22C93.68 72.28 97.17 64.86 98.55 61.92C98.92 61.16 99.84 60.84 100.59 61.24C103.63 62.82 111.35 66.84 114.38 68.42Z" id="a5KRs1h3xO"></path><path d="M97.35 11.45C97.9 11.55 98.28 12.05 98.25 12.6C98.14 14.69 97.85 19.99 97.74 22.07C97.71 22.59 97.24 22.96 96.73 22.86C94.64 22.45 89.3 21.43 87.2 21.02C86.66 20.92 86.27 20.42 86.3 19.87C86.41 17.78 86.7 12.48 86.81 10.4C86.84 9.88 87.32 9.51 87.82 9.61C89.92 10.02 95.25 11.04 97.35 11.45Z" id="b3L6VvYHs0"></path><path d="M99.07 10.58C99.61 10.69 100 11.18 99.97 11.74C99.85 13.83 99.57 19.12 99.45 21.21C99.43 21.72 98.95 22.09 98.45 21.99C96.35 21.59 91.01 20.56 88.92 20.16C88.37 20.05 87.99 19.56 88.02 19C88.13 16.91 88.42 11.62 88.53 9.53C88.56 9.02 89.03 8.65 89.53 8.75C91.63 9.15 96.97 10.18 99.07 10.58Z" id="a3DIgJva7U"></path><path d="M20.84 73.56C21.65 72.07 23.54 71.55 25 72.43C31.21 76.17 47.17 85.79 53.38 89.53C54.87 90.44 55.39 92.35 54.56 93.89C51.29 99.92 42.97 115.28 39.7 121.31C38.89 122.8 37 123.32 35.55 122.44C29.34 118.7 13.38 109.08 7.17 105.34C5.67 104.43 5.15 102.52 5.98 100.98C9.25 94.95 17.57 79.59 20.84 73.56Z" id="ajWZyjgp"></path><path d="M17.88 73.56C18.69 72.07 20.59 71.55 22.04 72.43C28.25 76.17 44.21 85.79 50.42 89.53C51.91 90.44 52.44 92.35 51.61 93.89C48.34 99.92 40.01 115.28 36.75 121.31C35.94 122.8 34.04 123.32 32.59 122.44C26.38 118.7 10.42 109.08 4.21 105.34C2.71 104.43 2.19 102.52 3.02 100.98C6.29 94.95 14.61 79.59 17.88 73.56Z" id="elz0TTehD"></path><path d="M48.1 12.44C47.87 11.7 48.27 10.91 49 10.65C51.8 9.64 58.91 7.07 61.71 6.06C62.42 5.8 63.2 6.19 63.42 6.91C64.32 9.83 66.6 17.26 67.49 20.17C67.72 20.92 67.32 21.71 66.59 21.97C63.79 22.98 56.68 25.55 53.88 26.56C53.17 26.81 52.39 26.42 52.17 25.7C51.27 22.79 49 15.36 48.1 12.44Z" id="b5shsQqBDn"></path><path d="M46.9 10.76C46.67 10.02 47.07 9.23 47.8 8.96C50.6 7.95 57.71 5.39 60.51 4.37C61.22 4.12 62 4.51 62.23 5.23C63.12 8.15 65.4 15.57 66.29 18.49C66.52 19.23 66.12 20.02 65.39 20.28C62.59 21.3 55.48 23.86 52.68 24.87C51.97 25.13 51.19 24.74 50.97 24.02C50.07 21.1 47.8 13.68 46.9 10.76Z" id="c9HA2lemx"></path><path d="M68.15 98.93C67.77 97.85 68.3 96.65 69.37 96.22C73.36 94.61 83.41 90.54 87.4 88.93C88.44 88.51 89.63 89.04 90 90.09C91.53 94.36 95.41 105.21 96.93 109.47C97.32 110.56 96.78 111.75 95.72 112.18C91.73 113.79 81.67 117.86 77.68 119.47C76.64 119.89 75.46 119.36 75.08 118.31C73.56 114.04 69.68 103.19 68.15 98.93Z" id="daaORVxwl"></path><path d="M70.12 102.3C69.73 101.22 70.26 100.03 71.33 99.6C75.32 97.98 85.38 93.92 89.36 92.3C90.4 91.88 91.59 92.41 91.96 93.47C93.49 97.73 97.37 108.59 98.89 112.85C99.28 113.93 98.74 115.13 97.68 115.56C93.69 117.17 83.63 121.24 79.65 122.85C78.6 123.27 77.42 122.74 77.04 121.68C75.52 117.42 71.64 106.57 70.12 102.3Z" id="bgY3Hjt7"></path></defs><g><g><g><use xlink:href="#a9H8kFm96N" opacity="1" fill="#8d9ecb" fill-opacity="1"></use></g><g><g><use xlink:href="#a2kRmjlAcn" opacity="1" fill="#48250c" fill-opacity="1"></use></g><g><use xlink:href="#arUi5YN7A" opacity="1" fill="#d2691f" fill-opacity="1"></use></g></g><g><g><use xlink:href="#atlF81TT1" opacity="1" fill="#13450b" fill-opacity="1"></use></g><g><use xlink:href="#c1jneOV9AK" opacity="1" fill="#2cb017" fill-opacity="1"></use></g></g><g><use xlink:href="#j1uwX9sVam" opacity="1" fill="#192136" fill-opacity="1"></use></g><g><g><use xlink:href="#b52sGKZt" opacity="1" fill="#494a13" fill-opacity="1"></use></g><g><use xlink:href="#a5KRs1h3xO" opacity="1" fill="#b7b925" fill-opacity="1"></use></g></g><g><g><use xlink:href="#b3L6VvYHs0" opacity="1" fill="#171b3c" fill-opacity="1"></use></g><g><use xlink:href="#a3DIgJva7U" opacity="1" fill="#303775" fill-opacity="1"></use></g></g><g><g><use xlink:href="#ajWZyjgp" opacity="1" fill="#4e798d" fill-opacity="1"></use></g><g><use xlink:href="#elz0TTehD" opacity="1" fill="#b2c3cb" fill-opacity="1"></use></g></g><g><g><use xlink:href="#b5shsQqBDn" opacity="1" fill="#1b4c62" fill-opacity="1"></use></g><g><use xlink:href="#c9HA2lemx" opacity="1" fill="#3cb0e7" fill-opacity="1"></use></g></g><g><g><use xlink:href="#daaORVxwl" opacity="1" fill="#651010" fill-opacity="1"></use></g><g><use xlink:href="#bgY3Hjt7" opacity="1" fill="#c82121" fill-opacity="1"></use></g></g></g></g></svg>