<svg xmlns="http://www.w3.org/2000/svg" xmlns:xlink="http://www.w3.org/1999/xlink" version="1.1" preserveAspectRatio="xMidYMid meet" viewBox="0 0 128 128" width="128" height="128"><defs><path d="M122.91 0.02L123.13 0.04L123.36 0.07L123.57 0.11L123.79 0.16L124 0.22L124.21 0.28L124.41 0.36L124.61 0.44L124.81 0.52L125 0.62L125.19 0.72L125.38 0.83L125.56 0.95L125.73 1.07L125.9 1.2L126.06 1.33L126.22 1.48L126.38 1.62L126.52 1.78L126.67 1.94L126.8 2.1L126.93 2.27L127.05 2.44L127.17 2.62L127.28 2.81L127.38 3L127.48 3.19L127.56 3.39L127.64 3.59L127.72 3.79L127.78 4L127.84 4.21L127.89 4.43L127.93 4.64L127.96 4.87L127.98 5.09L128 5.32L128 5.54L128 122.46L128 122.68L127.98 122.91L127.96 123.13L127.93 123.36L127.89 123.57L127.84 123.79L127.78 124L127.72 124.21L127.64 124.41L127.56 124.61L127.48 124.81L127.38 125L127.28 125.19L127.17 125.38L127.05 125.56L126.93 125.73L126.8 125.9L126.67 126.06L126.52 126.22L126.38 126.38L126.22 126.52L126.06 126.67L125.9 126.8L125.73 126.93L125.56 127.05L125.38 127.17L125.19 127.28L125 127.38L124.81 127.48L124.61 127.56L124.41 127.64L124.21 127.72L124 127.78L123.79 127.84L123.57 127.89L123.36 127.93L123.13 127.96L122.91 127.98L122.68 128L122.46 128L5.54 128L5.32 128L5.09 127.98L4.87 127.96L4.64 127.93L4.43 127.89L4.21 127.84L4 127.78L3.79 127.72L3.59 127.64L3.39 127.56L3.19 127.48L3 127.38L2.81 127.28L2.62 127.17L2.44 127.05L2.27 126.93L2.1 126.8L1.94 126.67L1.78 126.52L1.62 126.38L1.48 126.22L1.33 126.06L1.2 125.9L1.07 125.73L0.95 125.56L0.83 125.38L0.72 125.19L0.62 125L0.52 124.81L0.44 124.61L0.36 124.41L0.28 124.21L0.22 124L0.16 123.79L0.11 123.57L0.07 123.36L0.04 123.13L0.02 122.91L0 122.68L0 122.46L0 5.54L0 5.32L0.02 5.09L0.04 4.87L0.07 4.64L0.11 4.43L0.16 4.21L0.22 4L0.28 3.79L0.36 3.59L0.44 3.39L0.52 3.19L0.62 3L0.72 2.81L0.83 2.62L0.95 2.44L1.07 2.27L1.2 2.1L1.33 1.94L1.48 1.78L1.62 1.62L1.78 1.48L1.94 1.33L2.1 1.2L2.27 1.07L2.44 0.95L2.62 0.83L2.81 0.72L3 0.62L3.19 0.52L3.39 0.44L3.59 0.36L3.79 0.28L4 0.22L4.21 0.16L4.43 0.11L4.64 0.07L4.87 0.04L5.09 0.02L5.32 0L5.54 0L122.46 0L122.68 0L122.91 0.02ZM12.65 8L12.45 8.01L12.26 8.03L12.06 8.06L11.87 8.1L11.69 8.14L11.5 8.19L11.32 8.24L11.14 8.31L10.96 8.38L10.79 8.46L10.62 8.54L10.46 8.63L10.3 8.72L10.14 8.83L9.99 8.93L9.84 9.05L9.69 9.16L9.56 9.29L9.42 9.42L9.29 9.55L9.17 9.69L9.05 9.84L8.94 9.98L8.83 10.14L8.73 10.29L8.63 10.45L8.54 10.62L8.46 10.79L8.38 10.96L8.31 11.14L8.25 11.32L8.19 11.5L8.14 11.68L8.1 11.87L8.06 12.06L8.04 12.26L8.02 12.45L8 12.65L8 12.85L8 115.15L8 115.35L8.02 115.54L8.04 115.74L8.06 115.93L8.1 116.12L8.14 116.31L8.19 116.5L8.25 116.68L8.31 116.86L8.38 117.03L8.46 117.21L8.54 117.38L8.63 117.54L8.73 117.7L8.83 117.86L8.94 118.01L9.05 118.16L9.17 118.3L9.29 118.44L9.42 118.58L9.56 118.71L9.69 118.83L9.84 118.95L9.99 119.06L10.14 119.17L10.3 119.27L10.46 119.37L10.62 119.46L10.79 119.54L10.96 119.62L11.14 119.69L11.32 119.75L11.5 119.81L11.69 119.86L11.87 119.9L12.06 119.93L12.26 119.96L12.45 119.98L12.65 119.99L12.85 120L115.15 120L115.35 119.99L115.55 119.98L115.74 119.96L115.94 119.93L116.13 119.9L116.31 119.86L116.5 119.81L116.68 119.75L116.86 119.69L117.04 119.62L117.21 119.54L117.38 119.46L117.54 119.37L117.7 119.27L117.86 119.17L118.01 119.06L118.16 118.95L118.31 118.83L118.44 118.71L118.58 118.58L118.71 118.44L118.83 118.3L118.95 118.16L119.06 118.01L119.17 117.86L119.27 117.7L119.37 117.54L119.46 117.38L119.54 117.21L119.62 117.03L119.69 116.86L119.75 116.68L119.81 116.5L119.86 116.31L119.9 116.12L119.94 115.93L119.96 115.74L119.98 115.54L120 115.35L120 115.15L120 12.85L120 12.65L119.98 12.45L119.96 12.26L119.94 12.06L119.9 11.87L119.86 11.68L119.81 11.5L119.75 11.32L119.69 11.14L119.62 10.96L119.54 10.79L119.46 10.62L119.37 10.45L119.27 10.29L119.17 10.14L119.06 9.98L118.95 9.84L118.83 9.69L118.71 9.55L118.58 9.42L118.44 9.29L118.31 9.16L118.16 9.05L118.01 8.93L117.86 8.83L117.7 8.72L117.54 8.63L117.38 8.54L117.21 8.46L117.04 8.38L116.86 8.31L116.68 8.24L116.5 8.19L116.31 8.14L116.13 8.1L115.94 8.06L115.74 8.03L115.55 8.01L115.35 8L115.15 8L12.85 8L12.65 8Z" id="b3sTxbV3dv"/><path d="M120 12.85C120 34.28 120 93.72 120 115.15C120 117.83 117.83 120 115.15 120C93.72 120 34.28 120 12.85 120C10.17 120 8 117.83 8 115.15C8 93.72 8 34.28 8 12.85C8 10.17 10.17 8 12.85 8C34.28 8 93.72 8 115.15 8C117.83 8 120 10.17 120 12.85Z" id="ghw1UBzGM"/><path d="M116 12.87C116 16.69 116 27.31 116 31.13C116 31.61 115.61 32 115.13 32C111.31 32 100.69 32 96.87 32C96.39 32 96 31.61 96 31.13C96 27.31 96 16.69 96 12.87C96 12.39 96.39 12 96.87 12C100.69 12 111.31 12 115.13 12C115.61 12 116 12.39 116 12.87Z" id="a9BMKxWMN"/><path d="M116 33.87C116 37.69 116 48.31 116 52.13C116 52.61 115.61 53 115.13 53C111.31 53 100.69 53 96.87 53C96.39 53 96 52.61 96 52.13C96 48.31 96 37.69 96 33.87C96 33.39 96.39 33 96.87 33C100.69 33 111.31 33 115.13 33C115.61 33 116 33.39 116 33.87Z" id="dswyBolM3"/><path d="M95 12.87C95 16.69 95 27.31 95 31.13C95 31.61 94.61 32 94.13 32C90.31 32 79.69 32 75.87 32C75.39 32 75 31.61 75 31.13C75 27.31 75 16.69 75 12.87C75 12.39 75.39 12 75.87 12C79.69 12 90.31 12 94.13 12C94.61 12 95 12.39 95 12.87Z" id="a1i4HZkBMI"/><path d="M116 54.87C116 58.69 116 69.31 116 73.13C116 73.61 115.61 74 115.13 74C111.31 74 100.69 74 96.87 74C96.39 74 96 73.61 96 73.13C96 69.31 96 58.69 96 54.87C96 54.39 96.39 54 96.87 54C100.69 54 111.31 54 115.13 54C115.61 54 116 54.39 116 54.87Z" id="d2u4QNszGz"/><path d="M53 96.87C53 100.69 53 111.31 53 115.13C53 115.61 52.61 116 52.13 116C48.31 116 37.69 116 33.87 116C33.39 116 33 115.61 33 115.13C33 111.31 33 100.69 33 96.87C33 96.39 33.39 96 33.87 96C37.69 96 48.31 96 52.13 96C52.61 96 53 96.39 53 96.87Z" id="hbwnNBDfw"/><path d="M116 75.87C116 79.69 116 90.31 116 94.13C116 94.61 115.61 95 115.13 95C111.31 95 100.69 95 96.87 95C96.39 95 96 94.61 96 94.13C96 90.31 96 79.69 96 75.87C96 75.39 96.39 75 96.87 75C100.69 75 111.31 75 115.13 75C115.61 75 116 75.39 116 75.87Z" id="eep3NzMIJ"/><path d="M95 33.87C95 37.69 95 48.31 95 52.13C95 52.61 94.61 53 94.13 53C90.31 53 79.69 53 75.87 53C75.39 53 75 52.61 75 52.13C75 48.31 75 37.69 75 33.87C75 33.39 75.39 33 75.87 33C79.69 33 90.31 33 94.13 33C94.61 33 95 33.39 95 33.87Z" id="bVXIvCDIq"/><path d="M95 54.87C95 58.69 95 69.31 95 73.13C95 73.61 94.61 74 94.13 74C90.31 74 79.69 74 75.87 74C75.39 74 75 73.61 75 73.13C75 69.31 75 58.69 75 54.87C75 54.39 75.39 54 75.87 54C79.69 54 90.31 54 94.13 54C94.61 54 95 54.39 95 54.87Z" id="d11zhiPmXw"/><path d="M74 33.87C74 37.69 74 48.31 74 52.13C74 52.61 73.61 53 73.13 53C69.31 53 58.69 53 54.87 53C54.39 53 54 52.61 54 52.13C54 48.31 54 37.69 54 33.87C54 33.39 54.39 33 54.87 33C58.69 33 69.31 33 73.13 33C73.61 33 74 33.39 74 33.87Z" id="h6COrHrtOm"/><path d="M53 12.87C53 16.69 53 27.31 53 31.13C53 31.61 52.61 32 52.13 32C48.31 32 37.69 32 33.87 32C33.39 32 33 31.61 33 31.13C33 27.31 33 16.69 33 12.87C33 12.39 33.39 12 33.87 12C37.69 12 48.31 12 52.13 12C52.61 12 53 12.39 53 12.87Z" id="d9ysgpQD"/><path d="M116 96.87C116 100.69 116 111.31 116 115.13C116 115.61 115.61 116 115.13 116C111.31 116 100.69 116 96.87 116C96.39 116 96 115.61 96 115.13C96 111.31 96 100.69 96 96.87C96 96.39 96.39 96 96.87 96C100.69 96 111.31 96 115.13 96C115.61 96 116 96.39 116 96.87Z" id="bEtyhuXJf"/><path d="M32 12.87C32 16.69 32 27.31 32 31.13C32 31.61 31.61 32 31.13 32C27.31 32 16.69 32 12.87 32C12.39 32 12 31.61 12 31.13C12 27.31 12 16.69 12 12.87C12 12.39 12.39 12 12.87 12C16.69 12 27.31 12 31.13 12C31.61 12 32 12.39 32 12.87Z" id="ansiBMEaU"/><path d="M95 75.87C95 79.69 95 90.31 95 94.13C95 94.61 94.61 95 94.13 95C90.31 95 79.69 95 75.87 95C75.39 95 75 94.61 75 94.13C75 90.31 75 79.69 75 75.87C75 75.39 75.39 75 75.87 75C79.69 75 90.31 75 94.13 75C94.61 75 95 75.39 95 75.87Z" id="b4Yhmdd8H3"/><path d="M74 54.87C74 58.69 74 69.31 74 73.13C74 73.61 73.61 74 73.13 74C69.31 74 58.69 74 54.87 74C54.39 74 54 73.61 54 73.13C54 69.31 54 58.69 54 54.87C54 54.39 54.39 54 54.87 54C58.69 54 69.31 54 73.13 54C73.61 54 74 54.39 74 54.87Z" id="afvRmXRkL"/><path d="M53 33.87C53 37.69 53 48.31 53 52.13C53 52.61 52.61 53 52.13 53C48.31 53 37.69 53 33.87 53C33.39 53 33 52.61 33 52.13C33 48.31 33 37.69 33 33.87C33 33.39 33.39 33 33.87 33C37.69 33 48.31 33 52.13 33C52.61 33 53 33.39 53 33.87Z" id="a1Czl2HsZs"/><path d="M53 54.87C53 58.69 53 69.31 53 73.13C53 73.61 52.61 74 52.13 74C48.31 74 37.69 74 33.87 74C33.39 74 33 73.61 33 73.13C33 69.31 33 58.69 33 54.87C33 54.39 33.39 54 33.87 54C37.69 54 48.31 54 52.13 54C52.61 54 53 54.39 53 54.87Z" id="aGsv3eLTT"/><path d="M95 96.87C95 100.69 95 111.31 95 115.13C95 115.61 94.61 116 94.13 116C90.31 116 79.69 116 75.87 116C75.39 116 75 115.61 75 115.13C75 111.31 75 100.69 75 96.87C75 96.39 75.39 96 75.87 96C79.69 96 90.31 96 94.13 96C94.61 96 95 96.39 95 96.87Z" id="b4Bv9PY69r"/><path d="M74 75.87C74 79.69 74 90.31 74 94.13C74 94.61 73.61 95 73.13 95C69.31 95 58.69 95 54.87 95C54.39 95 54 94.61 54 94.13C54 90.31 54 79.69 54 75.87C54 75.39 54.39 75 54.87 75C58.69 75 69.31 75 73.13 75C73.61 75 74 75.39 74 75.87Z" id="blR78p9x9"/><path d="M74 96.87C74 100.69 74 111.31 74 115.13C74 115.61 73.61 116 73.13 116C69.31 116 58.69 116 54.87 116C54.39 116 54 115.61 54 115.13C54 111.31 54 100.69 54 96.87C54 96.39 54.39 96 54.87 96C58.69 96 69.31 96 73.13 96C73.61 96 74 96.39 74 96.87Z" id="iFFbc31gp"/><path d="M32 33.87C32 37.69 32 48.31 32 52.13C32 52.61 31.61 53 31.13 53C27.31 53 16.69 53 12.87 53C12.39 53 12 52.61 12 52.13C12 48.31 12 37.69 12 33.87C12 33.39 12.39 33 12.87 33C16.69 33 27.31 33 31.13 33C31.61 33 32 33.39 32 33.87Z" id="bC3zgis89"/><path d="M53 75.87C53 79.69 53 90.31 53 94.13C53 94.61 52.61 95 52.13 95C48.31 95 37.69 95 33.87 95C33.39 95 33 94.61 33 94.13C33 90.31 33 79.69 33 75.87C33 75.39 33.39 75 33.87 75C37.69 75 48.31 75 52.13 75C52.61 75 53 75.39 53 75.87Z" id="b3QC1ao7Ki"/><path d="M32 54.87C32 58.69 32 69.31 32 73.13C32 73.61 31.61 74 31.13 74C27.31 74 16.69 74 12.87 74C12.39 74 12 73.61 12 73.13C12 69.31 12 58.69 12 54.87C12 54.39 12.39 54 12.87 54C16.69 54 27.31 54 31.13 54C31.61 54 32 54.39 32 54.87Z" id="c1EUxAtmXF"/><path d="M32 96.87C32 100.69 32 111.31 32 115.13C32 115.61 31.61 116 31.13 116C27.31 116 16.69 116 12.87 116C12.39 116 12 115.61 12 115.13C12 111.31 12 100.69 12 96.87C12 96.39 12.39 96 12.87 96C16.69 96 27.31 96 31.13 96C31.61 96 32 96.39 32 96.87Z" id="ab3Qz3Mb2"/><path d="M32 75.87C32 79.69 32 90.31 32 94.13C32 94.61 31.61 95 31.13 95C27.31 95 16.69 95 12.87 95C12.39 95 12 94.61 12 94.13C12 90.31 12 79.69 12 75.87C12 75.39 12.39 75 12.87 75C16.69 75 27.31 75 31.13 75C31.61 75 32 75.39 32 75.87Z" id="dy3sNBtM2"/><path d="M74 12.87C74 16.69 74 27.31 74 31.13C74 31.61 73.61 32 73.13 32C69.31 32 58.69 32 54.87 32C54.39 32 54 31.61 54 31.13C54 27.31 54 16.69 54 12.87C54 12.39 54.39 12 54.87 12C58.69 12 69.31 12 73.13 12C73.61 12 74 12.39 74 12.87Z" id="c5mdZIwF6C"/></defs><g><g><g><use xlink:href="#b3sTxbV3dv" opacity="1" fill="#192136" fill-opacity="1"/></g><g><use xlink:href="#ghw1UBzGM" opacity="1" fill="#8d9ecb" fill-opacity="1"/></g><g><use xlink:href="#a9BMKxWMN" opacity="0" fill="#242d42" fill-opacity="1" id="brick-25"/><g><use xlink:href="#a9BMKxWMN" opacity="1" fill-opacity="0" stroke="#000000" stroke-width="1" stroke-opacity="0"/></g></g><g><use xlink:href="#dswyBolM3" opacity="0" fill="#242d42" fill-opacity="1" id="brick-24"/><g><use xlink:href="#dswyBolM3" opacity="1" fill-opacity="0" stroke="#000000" stroke-width="1" stroke-opacity="0"/></g></g><g><use xlink:href="#a1i4HZkBMI" opacity="0" fill="#242d42" fill-opacity="1" id="brick-23"/><g><use xlink:href="#a1i4HZkBMI" opacity="1" fill-opacity="0" stroke="#000000" stroke-width="1" stroke-opacity="0"/></g></g><g><use xlink:href="#d2u4QNszGz" opacity="0" fill="#242d42" fill-opacity="1" id="brick-22"/><g><use xlink:href="#d2u4QNszGz" opacity="1" fill-opacity="0" stroke="#000000" stroke-width="1" stroke-opacity="0"/></g></g><g><use xlink:href="#hbwnNBDfw" opacity="0" fill="#242d42" fill-opacity="1" id="brick-3"/><g><use xlink:href="#hbwnNBDfw" opacity="1" fill-opacity="0" stroke="#000000" stroke-width="1" stroke-opacity="0"/></g></g><g><use xlink:href="#eep3NzMIJ" opacity="0" fill="#242d42" fill-opacity="1" id="brick-19"/><g><use xlink:href="#eep3NzMIJ" opacity="1" fill-opacity="0" stroke="#000000" stroke-width="1" stroke-opacity="0"/></g></g><g><use xlink:href="#bVXIvCDIq" opacity="0" fill="#242d42" fill-opacity="1" id="brick-21"/><g><use xlink:href="#bVXIvCDIq" opacity="1" fill-opacity="0" stroke="#000000" stroke-width="1" stroke-opacity="0"/></g></g><g><use xlink:href="#d11zhiPmXw" opacity="0" fill="#242d42" fill-opacity="1" id="brick-18"/><g><use xlink:href="#d11zhiPmXw" opacity="1" fill-opacity="0" stroke="#000000" stroke-width="1" stroke-opacity="0"/></g></g><g><use xlink:href="#h6COrHrtOm" opacity="0" fill="#242d42" fill-opacity="1" id="brick-17"/><g><use xlink:href="#h6COrHrtOm" opacity="1" fill-opacity="0" stroke="#000000" stroke-width="1" stroke-opacity="0"/></g></g><g><use xlink:href="#d9ysgpQD" opacity="0" fill="#242d42" fill-opacity="1" id="brick-16"/><g><use xlink:href="#d9ysgpQD" opacity="1" fill-opacity="0" stroke="#000000" stroke-width="1" stroke-opacity="0"/></g></g><g><use xlink:href="#bEtyhuXJf" opacity="0" fill="#242d42" fill-opacity="1" id="brick-15"/><g><use xlink:href="#bEtyhuXJf" opacity="1" fill-opacity="0" stroke="#000000" stroke-width="1" stroke-opacity="0"/></g></g><g><use xlink:href="#ansiBMEaU" opacity="0" fill="#242d42" fill-opacity="1" id="brick-11"/><g><use xlink:href="#ansiBMEaU" opacity="1" fill-opacity="0" stroke="#000000" stroke-width="1" stroke-opacity="0"/></g></g><g><use xlink:href="#b4Yhmdd8H3" opacity="0" fill="#242d42" fill-opacity="1" id="brick-14"/><g><use xlink:href="#b4Yhmdd8H3" opacity="1" fill-opacity="0" stroke="#000000" stroke-width="1" stroke-opacity="0"/></g></g><g><use xlink:href="#afvRmXRkL" opacity="0" fill="#242d42" fill-opacity="1" id="brick-13"/><g><use xlink:href="#afvRmXRkL" opacity="1" fill-opacity="0" stroke="#000000" stroke-width="1" stroke-opacity="0"/></g></g><g><use xlink:href="#a1Czl2HsZs" opacity="0" fill="#242d42" fill-opacity="1" id="brick-12"/><g><use xlink:href="#a1Czl2HsZs" opacity="1" fill-opacity="0" stroke="#000000" stroke-width="1" stroke-opacity="0"/></g></g><g><use xlink:href="#aGsv3eLTT" opacity="0" fill="#242d42" fill-opacity="1" id="brick-8"/><g><use xlink:href="#aGsv3eLTT" opacity="1" fill-opacity="0" stroke="#000000" stroke-width="1" stroke-opacity="0"/></g></g><g><use xlink:href="#b4Bv9PY69r" opacity="0" fill="#242d42" fill-opacity="1" id="brick-10"/><g><use xlink:href="#b4Bv9PY69r" opacity="1" fill-opacity="0" stroke="#000000" stroke-width="1" stroke-opacity="0"/></g></g><g><use xlink:href="#blR78p9x9" opacity="0" fill="#242d42" fill-opacity="1" id="brick-9"/><g><use xlink:href="#blR78p9x9" opacity="1" fill-opacity="0" stroke="#000000" stroke-width="1" stroke-opacity="0"/></g></g><g><use xlink:href="#iFFbc31gp" opacity="0" fill="#242d42" fill-opacity="1" id="brick-6"/><g><use xlink:href="#iFFbc31gp" opacity="1" fill-opacity="0" stroke="#000000" stroke-width="1" stroke-opacity="0"/></g></g><g><use xlink:href="#bC3zgis89" opacity="0" fill="#242d42" fill-opacity="1" id="brick-7"/><g><use xlink:href="#bC3zgis89" opacity="1" fill-opacity="0" stroke="#000000" stroke-width="1" stroke-opacity="0"/></g></g><g><use xlink:href="#b3QC1ao7Ki" opacity="0" fill="#242d42" fill-opacity="1" id="brick-5"/><g><use xlink:href="#b3QC1ao7Ki" opacity="1" fill-opacity="0" stroke="#000000" stroke-width="1" stroke-opacity="0"/></g></g><g><use xlink:href="#c1EUxAtmXF" opacity="0" fill="#242d42" fill-opacity="1" id="brick-4"/><g><use xlink:href="#c1EUxAtmXF" opacity="1" fill-opacity="0" stroke="#000000" stroke-width="1" stroke-opacity="0"/></g></g><g><use xlink:href="#ab3Qz3Mb2" opacity="0" fill="#242d42" fill-opacity="1" id="brick-1"/><g><use xlink:href="#ab3Qz3Mb2" opacity="1" fill-opacity="0" stroke="#000000" stroke-width="1" stroke-opacity="0"/></g></g><g><use xlink:href="#dy3sNBtM2" opacity="0" fill="#242d42" fill-opacity="1" id="brick-2"/><g><use xlink:href="#dy3sNBtM2" opacity="1" fill-opacity="0" stroke="#000000" stroke-width="1" stroke-opacity="0"/></g></g><g><use xlink:href="#c5mdZIwF6C" opacity="0" fill="#242d42" fill-opacity="1" id="brick-20"/><g><use xlink:href="#c5mdZIwF6C" opacity="1" fill-opacity="0" stroke="#000000" stroke-width="1" stroke-opacity="0"/></g></g></g></g></svg>
