<?xml version="1.0" encoding="UTF-8" standalone="no"?>
<!DOCTYPE svg PUBLIC "-//W3C//DTD SVG 1.1//EN" "http://www.w3.org/Graphics/SVG/1.1/DTD/svg11.dtd">
<svg version="1.1" xmlns="http://www.w3.org/2000/svg" xmlns:xlink="http://www.w3.org/1999/xlink" preserveAspectRatio="xMidYMid meet" viewBox="0 0 128 128" width="128" height="128"><defs><path d="M122.91 0.02L123.13 0.04L123.36 0.07L123.57 0.11L123.79 0.16L124 0.22L124.21 0.28L124.41 0.36L124.61 0.44L124.81 0.52L125 0.62L125.19 0.72L125.38 0.83L125.56 0.95L125.73 1.07L125.9 1.2L126.06 1.33L126.22 1.48L126.38 1.62L126.52 1.78L126.67 1.94L126.8 2.1L126.93 2.27L127.05 2.44L127.17 2.62L127.28 2.81L127.38 3L127.48 3.19L127.56 3.39L127.64 3.59L127.72 3.79L127.78 4L127.84 4.21L127.89 4.43L127.93 4.64L127.96 4.87L127.98 5.09L128 5.32L128 5.54L128 122.46L128 122.68L127.98 122.91L127.96 123.13L127.93 123.36L127.89 123.57L127.84 123.79L127.78 124L127.72 124.21L127.64 124.41L127.56 124.61L127.48 124.81L127.38 125L127.28 125.19L127.17 125.38L127.05 125.56L126.93 125.73L126.8 125.9L126.67 126.06L126.52 126.22L126.38 126.38L126.22 126.52L126.06 126.67L125.9 126.8L125.73 126.93L125.56 127.05L125.38 127.17L125.19 127.28L125 127.38L124.81 127.48L124.61 127.56L124.41 127.64L124.21 127.72L124 127.78L123.79 127.84L123.57 127.89L123.36 127.93L123.13 127.96L122.91 127.98L122.68 128L122.46 128L5.54 128L5.32 128L5.09 127.98L4.87 127.96L4.64 127.93L4.43 127.89L4.21 127.84L4 127.78L3.79 127.72L3.59 127.64L3.39 127.56L3.19 127.48L3 127.38L2.81 127.28L2.62 127.17L2.44 127.05L2.27 126.93L2.1 126.8L1.94 126.67L1.78 126.52L1.62 126.38L1.48 126.22L1.33 126.06L1.2 125.9L1.07 125.73L0.95 125.56L0.83 125.38L0.72 125.19L0.62 125L0.52 124.81L0.44 124.61L0.36 124.41L0.28 124.21L0.22 124L0.16 123.79L0.11 123.57L0.07 123.36L0.04 123.13L0.02 122.91L0 122.68L0 122.46L0 5.54L0 5.32L0.02 5.09L0.04 4.87L0.07 4.64L0.11 4.43L0.16 4.21L0.22 4L0.28 3.79L0.36 3.59L0.44 3.39L0.52 3.19L0.62 3L0.72 2.81L0.83 2.62L0.95 2.44L1.07 2.27L1.2 2.1L1.33 1.94L1.48 1.78L1.62 1.62L1.78 1.48L1.94 1.33L2.1 1.2L2.27 1.07L2.44 0.95L2.62 0.83L2.81 0.72L3 0.62L3.19 0.52L3.39 0.44L3.59 0.36L3.79 0.28L4 0.22L4.21 0.16L4.43 0.11L4.64 0.07L4.87 0.04L5.09 0.02L5.32 0L5.54 0L122.46 0L122.68 0L122.91 0.02ZM12.65 8L12.45 8.01L12.26 8.03L12.06 8.06L11.87 8.1L11.69 8.14L11.5 8.19L11.32 8.24L11.14 8.31L10.96 8.38L10.79 8.46L10.62 8.54L10.46 8.63L10.3 8.72L10.14 8.83L9.99 8.93L9.84 9.05L9.69 9.16L9.56 9.29L9.42 9.42L9.29 9.55L9.17 9.69L9.05 9.84L8.94 9.98L8.83 10.14L8.73 10.29L8.63 10.45L8.54 10.62L8.46 10.79L8.38 10.96L8.31 11.14L8.25 11.32L8.19 11.5L8.14 11.68L8.1 11.87L8.06 12.06L8.04 12.26L8.02 12.45L8 12.65L8 12.85L8 115.15L8 115.35L8.02 115.54L8.04 115.74L8.06 115.93L8.1 116.12L8.14 116.31L8.19 116.5L8.25 116.68L8.31 116.86L8.38 117.03L8.46 117.21L8.54 117.38L8.63 117.54L8.73 117.7L8.83 117.86L8.94 118.01L9.05 118.16L9.17 118.3L9.29 118.44L9.42 118.58L9.56 118.71L9.69 118.83L9.84 118.95L9.99 119.06L10.14 119.17L10.3 119.27L10.46 119.37L10.62 119.46L10.79 119.54L10.96 119.62L11.14 119.69L11.32 119.75L11.5 119.81L11.69 119.86L11.87 119.9L12.06 119.93L12.26 119.96L12.45 119.98L12.65 119.99L12.85 120L115.15 120L115.35 119.99L115.55 119.98L115.74 119.96L115.94 119.93L116.13 119.9L116.31 119.86L116.5 119.81L116.68 119.75L116.86 119.69L117.04 119.62L117.21 119.54L117.38 119.46L117.54 119.37L117.7 119.27L117.86 119.17L118.01 119.06L118.16 118.95L118.31 118.83L118.44 118.71L118.58 118.58L118.71 118.44L118.83 118.3L118.95 118.16L119.06 118.01L119.17 117.86L119.27 117.7L119.37 117.54L119.46 117.38L119.54 117.21L119.62 117.03L119.69 116.86L119.75 116.68L119.81 116.5L119.86 116.31L119.9 116.12L119.94 115.93L119.96 115.74L119.98 115.54L120 115.35L120 115.15L120 12.85L120 12.65L119.98 12.45L119.96 12.26L119.94 12.06L119.9 11.87L119.86 11.68L119.81 11.5L119.75 11.32L119.69 11.14L119.62 10.96L119.54 10.79L119.46 10.62L119.37 10.45L119.27 10.29L119.17 10.14L119.06 9.98L118.95 9.84L118.83 9.69L118.71 9.55L118.58 9.42L118.44 9.29L118.31 9.16L118.16 9.05L118.01 8.93L117.86 8.83L117.7 8.72L117.54 8.63L117.38 8.54L117.21 8.46L117.04 8.38L116.86 8.31L116.68 8.24L116.5 8.19L116.31 8.14L116.13 8.1L115.94 8.06L115.74 8.03L115.55 8.01L115.35 8L115.15 8L12.85 8L12.65 8Z" id="b1eZ3GiJ00"></path><path d="M120 12.85C120 34.28 120 93.72 120 115.15C120 117.83 117.83 120 115.15 120C93.72 120 34.28 120 12.85 120C10.17 120 8 117.83 8 115.15C8 93.72 8 34.28 8 12.85C8 10.17 10.17 8 12.85 8C34.28 8 93.72 8 115.15 8C117.83 8 120 10.17 120 12.85Z" id="a1jXYy3Tuk"></path><path d="M86.08 12.62C86.08 15.34 86.08 22.9 86.08 25.63C86.08 25.97 85.81 26.25 85.47 26.25C82.74 26.25 75.18 26.25 72.45 26.25C72.11 26.25 71.84 25.97 71.84 25.63C71.84 22.9 71.84 15.34 71.84 12.62C71.84 12.28 72.11 12 72.45 12C75.18 12 82.74 12 85.47 12C85.81 12 86.08 12.28 86.08 12.62Z" id="b2ZYhg8fOP"></path><path d="M86.08 27.58C86.08 30.3 86.08 37.86 86.08 40.59C86.08 40.93 85.81 41.21 85.47 41.21C82.74 41.21 75.18 41.21 72.45 41.21C72.11 41.21 71.84 40.93 71.84 40.59C71.84 37.86 71.84 30.3 71.84 27.58C71.84 27.24 72.11 26.96 72.45 26.96C75.18 26.96 82.74 26.96 85.47 26.96C85.81 26.96 86.08 27.24 86.08 27.58Z" id="ccd86W175"></path><path d="M71.12 12.62C71.12 15.34 71.12 22.9 71.12 25.63C71.12 25.97 70.85 26.25 70.51 26.25C67.78 26.25 60.22 26.25 57.49 26.25C57.15 26.25 56.88 25.97 56.88 25.63C56.88 22.9 56.88 15.34 56.88 12.62C56.88 12.28 57.15 12 57.49 12C60.22 12 67.78 12 70.51 12C70.85 12 71.12 12.28 71.12 12.62Z" id="ccOIqr4lV"></path><path d="M86.08 42.53C86.08 45.26 86.08 52.82 86.08 55.55C86.08 55.89 85.81 56.16 85.47 56.16C82.74 56.16 75.18 56.16 72.45 56.16C72.11 56.16 71.84 55.89 71.84 55.55C71.84 52.82 71.84 45.26 71.84 42.53C71.84 42.19 72.11 41.92 72.45 41.92C75.18 41.92 82.74 41.92 85.47 41.92C85.81 41.92 86.08 42.19 86.08 42.53Z" id="a116nc029C"></path><path d="M41.21 72.45C41.21 75.18 41.21 82.74 41.21 85.47C41.21 85.81 40.93 86.08 40.59 86.08C37.86 86.08 30.3 86.08 27.58 86.08C27.24 86.08 26.96 85.81 26.96 85.47C26.96 82.74 26.96 75.18 26.96 72.45C26.96 72.11 27.24 71.84 27.58 71.84C30.3 71.84 37.86 71.84 40.59 71.84C40.93 71.84 41.21 72.11 41.21 72.45Z" id="d6RLJD3hk"></path><path d="M86.08 57.49C86.08 60.22 86.08 67.78 86.08 70.51C86.08 70.85 85.81 71.12 85.47 71.12C82.74 71.12 75.18 71.12 72.45 71.12C72.11 71.12 71.84 70.85 71.84 70.51C71.84 67.78 71.84 60.22 71.84 57.49C71.84 57.15 72.11 56.88 72.45 56.88C75.18 56.88 82.74 56.88 85.47 56.88C85.81 56.88 86.08 57.15 86.08 57.49Z" id="b6HH4ro89"></path><path d="M71.12 27.58C71.12 30.3 71.12 37.86 71.12 40.59C71.12 40.93 70.85 41.21 70.51 41.21C67.78 41.21 60.22 41.21 57.49 41.21C57.15 41.21 56.88 40.93 56.88 40.59C56.88 37.86 56.88 30.3 56.88 27.58C56.88 27.24 57.15 26.96 57.49 26.96C60.22 26.96 67.78 26.96 70.51 26.96C70.85 26.96 71.12 27.24 71.12 27.58Z" id="cqn9Yirdm"></path><path d="M71.12 42.53C71.12 45.26 71.12 52.82 71.12 55.55C71.12 55.89 70.85 56.16 70.51 56.16C67.78 56.16 60.22 56.16 57.49 56.16C57.15 56.16 56.88 55.89 56.88 55.55C56.88 52.82 56.88 45.26 56.88 42.53C56.88 42.19 57.15 41.92 57.49 41.92C60.22 41.92 67.78 41.92 70.51 41.92C70.85 41.92 71.12 42.19 71.12 42.53Z" id="a4I8qSirOd"></path><path d="M71.12 57.49C71.12 60.22 71.12 67.78 71.12 70.51C71.12 70.85 70.85 71.12 70.51 71.12C67.78 71.12 60.22 71.12 57.49 71.12C57.15 71.12 56.88 70.85 56.88 70.51C56.88 67.78 56.88 60.22 56.88 57.49C56.88 57.15 57.15 56.88 57.49 56.88C60.22 56.88 67.78 56.88 70.51 56.88C70.85 56.88 71.12 57.15 71.12 57.49Z" id="b1c7KeIjAz"></path><path d="M41.21 42.53C41.21 45.26 41.21 52.82 41.21 55.55C41.21 55.89 40.93 56.16 40.59 56.16C37.86 56.16 30.3 56.16 27.58 56.16C27.24 56.16 26.96 55.89 26.96 55.55C26.96 52.82 26.96 45.26 26.96 42.53C26.96 42.19 27.24 41.92 27.58 41.92C30.3 41.92 37.86 41.92 40.59 41.92C40.93 41.92 41.21 42.19 41.21 42.53Z" id="aQ0NgJOtf"></path><path d="M56.16 72.45C56.16 75.18 56.16 82.74 56.16 85.47C56.16 85.81 55.89 86.08 55.55 86.08C52.82 86.08 45.26 86.08 42.53 86.08C42.19 86.08 41.92 85.81 41.92 85.47C41.92 82.74 41.92 75.18 41.92 72.45C41.92 72.11 42.19 71.84 42.53 71.84C45.26 71.84 52.82 71.84 55.55 71.84C55.89 71.84 56.16 72.11 56.16 72.45Z" id="bH8SFL5Cl"></path><path d="M41.21 57.49C41.21 60.22 41.21 67.78 41.21 70.51C41.21 70.85 40.93 71.12 40.59 71.12C37.86 71.12 30.3 71.12 27.58 71.12C27.24 71.12 26.96 70.85 26.96 70.51C26.96 67.78 26.96 60.22 26.96 57.49C26.96 57.15 27.24 56.88 27.58 56.88C30.3 56.88 37.86 56.88 40.59 56.88C40.93 56.88 41.21 57.15 41.21 57.49Z" id="cPHkasbEl"></path><path d="M26.25 72.45C26.25 75.18 26.25 82.74 26.25 85.47C26.25 85.81 25.97 86.08 25.63 86.08C22.9 86.08 15.34 86.08 12.62 86.08C12.28 86.08 12 85.81 12 85.47C12 82.74 12 75.18 12 72.45C12 72.11 12.28 71.84 12.62 71.84C15.34 71.84 22.9 71.84 25.63 71.84C25.97 71.84 26.25 72.11 26.25 72.45Z" id="a48PSPCQkr"></path><path d="M26.25 57.49C26.25 60.22 26.25 67.78 26.25 70.51C26.25 70.85 25.97 71.12 25.63 71.12C22.9 71.12 15.34 71.12 12.62 71.12C12.28 71.12 12 70.85 12 70.51C12 67.78 12 60.22 12 57.49C12 57.15 12.28 56.88 12.62 56.88C15.34 56.88 22.9 56.88 25.63 56.88C25.97 56.88 26.25 57.15 26.25 57.49Z" id="a4FvfXSju"></path><path d="M101.04 42.53C101.04 45.26 101.04 52.82 101.04 55.55C101.04 55.89 100.76 56.16 100.42 56.16C97.7 56.16 90.14 56.16 87.41 56.16C87.07 56.16 86.79 55.89 86.79 55.55C86.79 52.82 86.79 45.26 86.79 42.53C86.79 42.19 87.07 41.92 87.41 41.92C90.14 41.92 97.7 41.92 100.42 41.92C100.76 41.92 101.04 42.19 101.04 42.53Z" id="d1DPYEaqe6"></path><path d="M101.04 27.58C101.04 30.3 101.04 37.86 101.04 40.59C101.04 40.93 100.76 41.21 100.42 41.21C97.7 41.21 90.14 41.21 87.41 41.21C87.07 41.21 86.79 40.93 86.79 40.59C86.79 37.86 86.79 30.3 86.79 27.58C86.79 27.24 87.07 26.96 87.41 26.96C90.14 26.96 97.7 26.96 100.42 26.96C100.76 26.96 101.04 27.24 101.04 27.58Z" id="c3tXnbeu8i"></path><path d="M101.04 12.62C101.04 15.34 101.04 22.9 101.04 25.63C101.04 25.97 100.76 26.25 100.42 26.25C97.7 26.25 90.14 26.25 87.41 26.25C87.07 26.25 86.79 25.97 86.79 25.63C86.79 22.9 86.79 15.34 86.79 12.62C86.79 12.28 87.07 12 87.41 12C90.14 12 97.7 12 100.42 12C100.76 12 101.04 12.28 101.04 12.62Z" id="a32jZlyaGz"></path><path d="M101.04 72.45C101.04 75.18 101.04 82.74 101.04 85.47C101.04 85.81 100.76 86.08 100.42 86.08C97.7 86.08 90.14 86.08 87.41 86.08C87.07 86.08 86.79 85.81 86.79 85.47C86.79 82.74 86.79 75.18 86.79 72.45C86.79 72.11 87.07 71.84 87.41 71.84C90.14 71.84 97.7 71.84 100.42 71.84C100.76 71.84 101.04 72.11 101.04 72.45Z" id="b8Ld7ZMDDC"></path><path d="M101.04 57.49C101.04 60.22 101.04 67.78 101.04 70.51C101.04 70.85 100.76 71.12 100.42 71.12C97.7 71.12 90.14 71.12 87.41 71.12C87.07 71.12 86.79 70.85 86.79 70.51C86.79 67.78 86.79 60.22 86.79 57.49C86.79 57.15 87.07 56.88 87.41 56.88C90.14 56.88 97.7 56.88 100.42 56.88C100.76 56.88 101.04 57.15 101.04 57.49Z" id="e2HN2G67Jg"></path><path d="M41.21 102.37C41.21 105.1 41.21 112.66 41.21 115.38C41.21 115.72 40.93 116 40.59 116C37.86 116 30.3 116 27.58 116C27.24 116 26.96 115.72 26.96 115.38C26.96 112.66 26.96 105.1 26.96 102.37C26.96 102.03 27.24 101.75 27.58 101.75C30.3 101.75 37.86 101.75 40.59 101.75C40.93 101.75 41.21 102.03 41.21 102.37Z" id="b4JH2GJe6l"></path><path d="M86.08 87.41C86.08 90.14 86.08 97.7 86.08 100.42C86.08 100.76 85.81 101.04 85.47 101.04C82.74 101.04 75.18 101.04 72.45 101.04C72.11 101.04 71.84 100.76 71.84 100.42C71.84 97.7 71.84 90.14 71.84 87.41C71.84 87.07 72.11 86.79 72.45 86.79C75.18 86.79 82.74 86.79 85.47 86.79C85.81 86.79 86.08 87.07 86.08 87.41Z" id="gxlZgXbF4"></path><path d="M86.08 102.37C86.08 105.1 86.08 112.66 86.08 115.38C86.08 115.72 85.81 116 85.47 116C82.74 116 75.18 116 72.45 116C72.11 116 71.84 115.72 71.84 115.38C71.84 112.66 71.84 105.1 71.84 102.37C71.84 102.03 72.11 101.75 72.45 101.75C75.18 101.75 82.74 101.75 85.47 101.75C85.81 101.75 86.08 102.03 86.08 102.37Z" id="a2C1NLzXdU"></path><path d="M56.16 102.37C56.16 105.1 56.16 112.66 56.16 115.38C56.16 115.72 55.89 116 55.55 116C52.82 116 45.26 116 42.53 116C42.19 116 41.92 115.72 41.92 115.38C41.92 112.66 41.92 105.1 41.92 102.37C41.92 102.03 42.19 101.75 42.53 101.75C45.26 101.75 52.82 101.75 55.55 101.75C55.89 101.75 56.16 102.03 56.16 102.37Z" id="b2pmiUe05x"></path><path d="M71.12 102.37C71.12 105.1 71.12 112.66 71.12 115.38C71.12 115.72 70.85 116 70.51 116C67.78 116 60.22 116 57.49 116C57.15 116 56.88 115.72 56.88 115.38C56.88 112.66 56.88 105.1 56.88 102.37C56.88 102.03 57.15 101.75 57.49 101.75C60.22 101.75 67.78 101.75 70.51 101.75C70.85 101.75 71.12 102.03 71.12 102.37Z" id="a2gMg060U"></path><path d="M56.16 87.41C56.16 90.14 56.16 97.7 56.16 100.42C56.16 100.76 55.89 101.04 55.55 101.04C52.82 101.04 45.26 101.04 42.53 101.04C42.19 101.04 41.92 100.76 41.92 100.42C41.92 97.7 41.92 90.14 41.92 87.41C41.92 87.07 42.19 86.79 42.53 86.79C45.26 86.79 52.82 86.79 55.55 86.79C55.89 86.79 56.16 87.07 56.16 87.41Z" id="c6rTT6Bqq"></path><path d="M71.12 87.41C71.12 90.14 71.12 97.7 71.12 100.42C71.12 100.76 70.85 101.04 70.51 101.04C67.78 101.04 60.22 101.04 57.49 101.04C57.15 101.04 56.88 100.76 56.88 100.42C56.88 97.7 56.88 90.14 56.88 87.41C56.88 87.07 57.15 86.79 57.49 86.79C60.22 86.79 67.78 86.79 70.51 86.79C70.85 86.79 71.12 87.07 71.12 87.41Z" id="aqFmCj5JZ"></path><path d="M41.21 87.41C41.21 90.14 41.21 97.7 41.21 100.42C41.21 100.76 40.93 101.04 40.59 101.04C37.86 101.04 30.3 101.04 27.58 101.04C27.24 101.04 26.96 100.76 26.96 100.42C26.96 97.7 26.96 90.14 26.96 87.41C26.96 87.07 27.24 86.79 27.58 86.79C30.3 86.79 37.86 86.79 40.59 86.79C40.93 86.79 41.21 87.07 41.21 87.41Z" id="ai4zItrEr"></path><path d="M26.25 102.37C26.25 105.1 26.25 112.66 26.25 115.38C26.25 115.72 25.97 116 25.63 116C22.9 116 15.34 116 12.62 116C12.28 116 12 115.72 12 115.38C12 112.66 12 105.1 12 102.37C12 102.03 12.28 101.75 12.62 101.75C15.34 101.75 22.9 101.75 25.63 101.75C25.97 101.75 26.25 102.03 26.25 102.37Z" id="b3t2DZpPu4"></path><path d="M26.25 87.41C26.25 90.14 26.25 97.7 26.25 100.42C26.25 100.76 25.97 101.04 25.63 101.04C22.9 101.04 15.34 101.04 12.62 101.04C12.28 101.04 12 100.76 12 100.42C12 97.7 12 90.14 12 87.41C12 87.07 12.28 86.79 12.62 86.79C15.34 86.79 22.9 86.79 25.63 86.79C25.97 86.79 26.25 87.07 26.25 87.41Z" id="asVH7DA1D"></path><path d="M116 87.41C116 90.14 116 97.7 116 100.42C116 100.76 115.72 101.04 115.38 101.04C112.66 101.04 105.1 101.04 102.37 101.04C102.03 101.04 101.75 100.76 101.75 100.42C101.75 97.7 101.75 90.14 101.75 87.41C101.75 87.07 102.03 86.79 102.37 86.79C105.1 86.79 112.66 86.79 115.38 86.79C115.72 86.79 116 87.07 116 87.41Z" id="a7xc5noFv"></path><path d="M116 102.37C116 105.1 116 112.66 116 115.38C116 115.72 115.72 116 115.38 116C112.66 116 105.1 116 102.37 116C102.03 116 101.75 115.72 101.75 115.38C101.75 112.66 101.75 105.1 101.75 102.37C101.75 102.03 102.03 101.75 102.37 101.75C105.1 101.75 112.66 101.75 115.38 101.75C115.72 101.75 116 102.03 116 102.37Z" id="a2OjQNOsI6"></path><path d="M101.04 102.37C101.04 105.1 101.04 112.66 101.04 115.38C101.04 115.72 100.76 116 100.42 116C97.7 116 90.14 116 87.41 116C87.07 116 86.79 115.72 86.79 115.38C86.79 112.66 86.79 105.1 86.79 102.37C86.79 102.03 87.07 101.75 87.41 101.75C90.14 101.75 97.7 101.75 100.42 101.75C100.76 101.75 101.04 102.03 101.04 102.37Z" id="d49gfxGpZe"></path></defs><g><g><g><use xlink:href="#b1eZ3GiJ00" opacity="1" fill="#192136" fill-opacity="1"></use></g><g><use xlink:href="#a1jXYy3Tuk" opacity="1" fill="#8d9ecb" fill-opacity="1"></use></g><g><use xlink:href="#b2ZYhg8fOP" opacity="1" fill="#e07722" fill-opacity="0.16"></use><g><use xlink:href="#b2ZYhg8fOP" opacity="1" fill-opacity="0" stroke="#000000" stroke-width="1" stroke-opacity="0"></use></g></g><g><use xlink:href="#ccd86W175" opacity="1" fill="#e07722" fill-opacity="0.34"></use><g><use xlink:href="#ccd86W175" opacity="1" fill-opacity="0" stroke="#000000" stroke-width="1" stroke-opacity="0"></use></g></g><g><use xlink:href="#ccOIqr4lV" opacity="1" fill="#e07722" fill-opacity="0.16"></use><g><use xlink:href="#ccOIqr4lV" opacity="1" fill-opacity="0" stroke="#000000" stroke-width="1" stroke-opacity="0"></use></g></g><g><use xlink:href="#a116nc029C" opacity="1" fill="#e07722" fill-opacity="0.57"></use></g><g><use xlink:href="#d6RLJD3hk" opacity="1" fill="#242d42" fill-opacity="1"></use><g><use xlink:href="#d6RLJD3hk" opacity="1" fill-opacity="0" stroke="#000000" stroke-width="1" stroke-opacity="0"></use></g></g><g><use xlink:href="#b6HH4ro89" opacity="1" fill="#e07722" fill-opacity="1"></use><g><use xlink:href="#b6HH4ro89" opacity="1" fill-opacity="0" stroke="#000000" stroke-width="1" stroke-opacity="0"></use></g></g><g><use xlink:href="#cqn9Yirdm" opacity="1" fill="#e07722" fill-opacity="0.34"></use><g><use xlink:href="#cqn9Yirdm" opacity="1" fill-opacity="0" stroke="#000000" stroke-width="1" stroke-opacity="0"></use></g></g><g><use xlink:href="#a4I8qSirOd" opacity="1" fill="#e07722" fill-opacity="0.66"></use><g><use xlink:href="#a4I8qSirOd" opacity="1" fill-opacity="0" stroke="#000000" stroke-width="1" stroke-opacity="0"></use></g></g><g><use xlink:href="#b1c7KeIjAz" opacity="1" fill="#e07722" fill-opacity="1"></use><g><use xlink:href="#b1c7KeIjAz" opacity="1" fill-opacity="0" stroke="#000000" stroke-width="1" stroke-opacity="0"></use></g></g><g><use xlink:href="#aQ0NgJOtf" opacity="1" fill="#242d42" fill-opacity="1"></use><g><use xlink:href="#aQ0NgJOtf" opacity="1" fill-opacity="0" stroke="#000000" stroke-width="1" stroke-opacity="0"></use></g></g><g><use xlink:href="#bH8SFL5Cl" opacity="1" fill="#242d42" fill-opacity="1"></use><g><use xlink:href="#bH8SFL5Cl" opacity="1" fill-opacity="0" stroke="#000000" stroke-width="1" stroke-opacity="0"></use></g></g><g><use xlink:href="#cPHkasbEl" opacity="1" fill="#242d42" fill-opacity="1"></use><g><use xlink:href="#cPHkasbEl" opacity="1" fill-opacity="0" stroke="#000000" stroke-width="1" stroke-opacity="0"></use></g></g><g><use xlink:href="#a48PSPCQkr" opacity="1" fill="#242d42" fill-opacity="1"></use><g><use xlink:href="#a48PSPCQkr" opacity="1" fill-opacity="0" stroke="#000000" stroke-width="1" stroke-opacity="0"></use></g></g><g><use xlink:href="#a4FvfXSju" opacity="1" fill="#242d42" fill-opacity="1"></use><g><use xlink:href="#a4FvfXSju" opacity="1" fill-opacity="0" stroke="#000000" stroke-width="1" stroke-opacity="0"></use></g></g><g><use xlink:href="#d1DPYEaqe6" opacity="1" fill="#e07722" fill-opacity="0.66"></use><g><use xlink:href="#d1DPYEaqe6" opacity="1" fill-opacity="0" stroke="#000000" stroke-width="1" stroke-opacity="0"></use></g></g><g><use xlink:href="#c3tXnbeu8i" opacity="1" fill="#e07722" fill-opacity="0.34"></use><g><use xlink:href="#c3tXnbeu8i" opacity="1" fill-opacity="0" stroke="#000000" stroke-width="1" stroke-opacity="0"></use></g></g><g><use xlink:href="#a32jZlyaGz" opacity="1" fill="#e07722" fill-opacity="0.16"></use><g><use xlink:href="#a32jZlyaGz" opacity="1" fill-opacity="0" stroke="#000000" stroke-width="1" stroke-opacity="0"></use></g></g><g><use xlink:href="#b8Ld7ZMDDC" opacity="1" fill="#e07722" fill-opacity="1"></use><g><use xlink:href="#b8Ld7ZMDDC" opacity="1" fill-opacity="0" stroke="#000000" stroke-width="1" stroke-opacity="0"></use></g></g><g><use xlink:href="#e2HN2G67Jg" opacity="1" fill="#e07722" fill-opacity="1"></use><g><use xlink:href="#e2HN2G67Jg" opacity="1" fill-opacity="0" stroke="#000000" stroke-width="1" stroke-opacity="0"></use></g></g><g><use xlink:href="#b4JH2GJe6l" opacity="1" fill="#242d42" fill-opacity="1"></use><g><use xlink:href="#b4JH2GJe6l" opacity="1" fill-opacity="0" stroke="#000000" stroke-width="1" stroke-opacity="0"></use></g></g><g><use xlink:href="#gxlZgXbF4" opacity="1" fill="#242d42" fill-opacity="1"></use><g><use xlink:href="#gxlZgXbF4" opacity="1" fill-opacity="0" stroke="#000000" stroke-width="1" stroke-opacity="0"></use></g></g><g><use xlink:href="#a2C1NLzXdU" opacity="1" fill="#242d42" fill-opacity="1"></use><g><use xlink:href="#a2C1NLzXdU" opacity="1" fill-opacity="0" stroke="#000000" stroke-width="1" stroke-opacity="0"></use></g></g><g><use xlink:href="#b2pmiUe05x" opacity="1" fill="#242d42" fill-opacity="1"></use><g><use xlink:href="#b2pmiUe05x" opacity="1" fill-opacity="0" stroke="#000000" stroke-width="1" stroke-opacity="0"></use></g></g><g><use xlink:href="#a2gMg060U" opacity="1" fill="#242d42" fill-opacity="1"></use><g><use xlink:href="#a2gMg060U" opacity="1" fill-opacity="0" stroke="#000000" stroke-width="1" stroke-opacity="0"></use></g></g><g><use xlink:href="#c6rTT6Bqq" opacity="1" fill="#242d42" fill-opacity="1"></use><g><use xlink:href="#c6rTT6Bqq" opacity="1" fill-opacity="0" stroke="#000000" stroke-width="1" stroke-opacity="0"></use></g></g><g><use xlink:href="#aqFmCj5JZ" opacity="1" fill="#242d42" fill-opacity="1"></use><g><use xlink:href="#aqFmCj5JZ" opacity="1" fill-opacity="0" stroke="#000000" stroke-width="1" stroke-opacity="0"></use></g></g><g><use xlink:href="#ai4zItrEr" opacity="1" fill="#242d42" fill-opacity="1"></use><g><use xlink:href="#ai4zItrEr" opacity="1" fill-opacity="0" stroke="#000000" stroke-width="1" stroke-opacity="0"></use></g></g><g><use xlink:href="#b3t2DZpPu4" opacity="1" fill="#242d42" fill-opacity="1"></use><g><use xlink:href="#b3t2DZpPu4" opacity="1" fill-opacity="0" stroke="#000000" stroke-width="1" stroke-opacity="0"></use></g></g><g><use xlink:href="#asVH7DA1D" opacity="1" fill="#242d42" fill-opacity="1"></use><g><use xlink:href="#asVH7DA1D" opacity="1" fill-opacity="0" stroke="#000000" stroke-width="1" stroke-opacity="0"></use></g></g><g><use xlink:href="#a7xc5noFv" opacity="1" fill="#242d42" fill-opacity="1"></use><g><use xlink:href="#a7xc5noFv" opacity="1" fill-opacity="0" stroke="#000000" stroke-width="1" stroke-opacity="0"></use></g></g><g><use xlink:href="#a2OjQNOsI6" opacity="1" fill="#242d42" fill-opacity="1"></use><g><use xlink:href="#a2OjQNOsI6" opacity="1" fill-opacity="0" stroke="#000000" stroke-width="1" stroke-opacity="0"></use></g></g><g><use xlink:href="#d49gfxGpZe" opacity="1" fill="#242d42" fill-opacity="1"></use><g><use xlink:href="#d49gfxGpZe" opacity="1" fill-opacity="0" stroke="#000000" stroke-width="1" stroke-opacity="0"></use></g></g></g></g></svg>