<?xml version="1.0" encoding="UTF-8" standalone="no"?>
<!DOCTYPE svg PUBLIC "-//W3C//DTD SVG 1.1//EN" "http://www.w3.org/Graphics/SVG/1.1/DTD/svg11.dtd">
<svg version="1.1" xmlns="http://www.w3.org/2000/svg" xmlns:xlink="http://www.w3.org/1999/xlink" preserveAspectRatio="xMidYMid meet" viewBox="0 0 128 105" width="128" height="105"><defs><path d="M128 64.94L103.55 0.13L24.44 0.13L0 64.94L64 105L128 64.94Z" id="f28sgkZyx3"></path><path d="M119 61.82L97.99 6.13L30.01 6.13L9 61.82L64 96.25L119 61.82Z" id="d8qdMFlnE"></path><path d="M34.08 60L64 73.11L93.92 60L93.92 33.79L64 20.68L34.08 33.79L34.08 60Z" id="chjkP6vnV"></path><path d="M95.51 53.89L97.83 60.15L64 80.11L30.17 60.15L32.51 53.89L64 72.78L95.51 53.89Z" id="e6DkYdViI"></path><path d="M95.51 41.89L97.83 48.15L64 68.11L30.17 48.15L32.51 41.89L64 60.78L95.51 41.89Z" id="bBBxDKtSZ"></path><path d="M95.51 29.89L97.83 36.15L64 56.11L30.17 36.15L32.51 29.89L64 48.78L95.51 29.89Z" id="d1IfwyV19d"></path><path d="M80.44 20.58L72.22 27.98L74.16 38.43L64 33.5L53.85 38.43L55.79 27.98L47.57 20.58L58.93 19.06L64 9.55L69.08 19.06L80.44 20.58Z" id="bc8OWR89B"></path></defs><g><g><g><use xlink:href="#f28sgkZyx3" opacity="1" fill="#cd7f32" fill-opacity="1"></use><g><use xlink:href="#f28sgkZyx3" opacity="1" fill-opacity="0" stroke="#000000" stroke-width="1" stroke-opacity="0"></use></g></g><g><use xlink:href="#d8qdMFlnE" opacity="1" fill="#90571f" fill-opacity="1"></use><g><use xlink:href="#d8qdMFlnE" opacity="1" fill-opacity="0" stroke="#000000" stroke-width="1" stroke-opacity="0"></use></g></g><g><use xlink:href="#chjkP6vnV" opacity="1" fill="#512f0d" fill-opacity="1"></use><g><use xlink:href="#chjkP6vnV" opacity="1" fill-opacity="0" stroke="#000000" stroke-width="1" stroke-opacity="0"></use></g></g><g><use xlink:href="#e6DkYdViI" opacity="1" fill="#cd7f32" fill-opacity="1"></use><g><use xlink:href="#e6DkYdViI" opacity="1" fill-opacity="0" stroke="#000000" stroke-width="1" stroke-opacity="0"></use></g></g><g><use xlink:href="#bBBxDKtSZ" opacity="1" fill="#cd7f32" fill-opacity="1"></use><g><use xlink:href="#bBBxDKtSZ" opacity="1" fill-opacity="0" stroke="#000000" stroke-width="1" stroke-opacity="0"></use></g></g><g><use xlink:href="#d1IfwyV19d" opacity="1" fill="#cd7f32" fill-opacity="1"></use><g><use xlink:href="#d1IfwyV19d" opacity="1" fill-opacity="0" stroke="#000000" stroke-width="1" stroke-opacity="0"></use></g></g><g><use xlink:href="#bc8OWR89B" opacity="1" fill="#cd7f32" fill-opacity="1"></use><g><use xlink:href="#bc8OWR89B" opacity="1" fill-opacity="0" stroke="#000000" stroke-width="1" stroke-opacity="0"></use></g></g></g></g></svg>