<?xml version="1.0" encoding="UTF-8" standalone="no"?>
<!DOCTYPE svg PUBLIC "-//W3C//DTD SVG 1.1//EN" "http://www.w3.org/Graphics/SVG/1.1/DTD/svg11.dtd">
<svg version="1.1" xmlns="http://www.w3.org/2000/svg" xmlns:xlink="http://www.w3.org/1999/xlink" preserveAspectRatio="xMidYMid meet" viewBox="0 0 128 128" width="128" height="128"><defs><path d="M120 12.85C120 34.28 120 93.72 120 115.15C120 117.83 117.83 120 115.15 120C93.72 120 34.28 120 12.85 120C10.17 120 8 117.83 8 115.15C8 93.72 8 34.28 8 12.85C8 10.17 10.17 8 12.85 8C34.28 8 93.72 8 115.15 8C117.83 8 120 10.17 120 12.85Z" id="g1hZdSsur9"></path><path d="M100.67 81.93C98.29 83.99 91.69 89.72 89.31 91.78C89.01 92.04 88.57 92.02 88.33 91.74C86.37 89.48 80.95 83.23 79 80.98C78.76 80.7 78.8 80.26 79.1 80C81.48 77.94 88.08 72.21 90.46 70.15C90.76 69.89 91.2 69.91 91.44 70.19C93.39 72.45 98.81 78.7 100.77 80.95C101.01 81.23 100.97 81.67 100.67 81.93Z" id="g4kS0Ix84b"></path><path d="M63.53 83.49L63.62 83.52L80.63 90.18L80.72 90.22L80.8 90.26L80.87 90.32L80.93 90.38L80.99 90.45L81.04 90.52L81.09 90.6L81.12 90.68L81.15 90.76L81.17 90.85L81.18 90.94L81.18 91.03L81.17 91.12L81.15 91.21L81.12 91.3L74.46 108.31L74.42 108.4L74.37 108.48L74.32 108.55L74.26 108.62L74.19 108.67L74.12 108.73L74.04 108.77L73.96 108.8L73.87 108.83L73.79 108.85L73.7 108.86L73.61 108.86L73.52 108.85L73.43 108.83L73.34 108.8L56.33 102.14L56.24 102.1L56.16 102.05L56.09 102L56.02 101.94L55.96 101.87L55.91 101.8L55.87 101.72L55.83 101.64L55.81 101.55L55.79 101.47L55.78 101.38L55.78 101.29L55.79 101.2L55.81 101.11L55.84 101.02L62.5 84.01L62.54 83.92L62.58 83.84L62.64 83.77L62.7 83.7L62.77 83.64L62.84 83.59L62.92 83.55L63 83.51L63.08 83.49L63.17 83.47L63.26 83.46L63.35 83.46L63.44 83.47L63.53 83.49ZM70.96 64.5L71.05 64.53L88.06 71.19L88.15 71.23L88.23 71.28L88.3 71.33L88.37 71.4L88.43 71.46L88.48 71.54L88.52 71.61L88.56 71.69L88.59 71.78L88.6 71.87L88.61 71.95L88.61 72.04L88.6 72.14L88.58 72.23L88.55 72.32L81.89 89.33L81.85 89.41L81.81 89.49L81.75 89.56L81.69 89.63L81.62 89.69L81.55 89.74L81.47 89.78L81.39 89.82L81.31 89.85L81.22 89.87L81.13 89.87L81.04 89.87L80.95 89.87L80.86 89.85L80.77 89.82L63.76 83.16L63.68 83.12L63.6 83.07L63.52 83.01L63.46 82.95L63.4 82.89L63.35 82.81L63.3 82.74L63.27 82.65L63.24 82.57L63.22 82.48L63.21 82.39L63.21 82.3L63.22 82.21L63.24 82.12L63.27 82.03L69.93 65.02L69.97 64.94L70.02 64.86L70.07 64.78L70.13 64.72L70.2 64.66L70.27 64.61L70.35 64.56L70.43 64.53L70.52 64.5L70.6 64.48L70.69 64.47L70.78 64.47L70.87 64.48L70.96 64.5ZM51.75 56.88L51.84 56.91L68.85 63.57L68.94 63.61L69.02 63.65L69.09 63.71L69.16 63.77L69.22 63.84L69.27 63.91L69.31 63.99L69.35 64.07L69.37 64.15L69.39 64.24L69.4 64.33L69.4 64.42L69.39 64.51L69.37 64.6L69.34 64.69L62.68 81.7L62.64 81.78L62.6 81.86L62.54 81.94L62.48 82L62.41 82.06L62.34 82.11L62.26 82.16L62.18 82.19L62.1 82.22L62.01 82.24L61.92 82.25L61.83 82.25L61.74 82.24L61.65 82.22L61.56 82.19L44.55 75.53L44.46 75.49L44.38 75.44L44.31 75.39L44.24 75.33L44.19 75.26L44.13 75.19L44.09 75.11L44.05 75.03L44.03 74.94L44.01 74.86L44 74.77L44 74.68L44.01 74.59L44.03 74.5L44.06 74.41L50.72 57.4L50.76 57.31L50.81 57.23L50.86 57.16L50.92 57.09L50.99 57.03L51.06 56.98L51.14 56.94L51.22 56.9L51.31 56.87L51.39 56.86L51.48 56.85L51.57 56.85L51.66 56.86L51.75 56.88ZM59.13 37.84L59.22 37.87L76.23 44.53L76.32 44.57L76.4 44.62L76.47 44.67L76.54 44.74L76.6 44.8L76.65 44.88L76.69 44.95L76.73 45.03L76.75 45.12L76.77 45.21L76.78 45.29L76.78 45.38L76.77 45.48L76.75 45.57L76.72 45.66L70.06 62.67L70.02 62.75L69.98 62.83L69.92 62.9L69.86 62.97L69.79 63.03L69.72 63.08L69.64 63.12L69.56 63.16L69.48 63.19L69.39 63.21L69.3 63.21L69.21 63.21L69.12 63.21L69.03 63.19L68.94 63.16L51.93 56.49L51.84 56.46L51.76 56.41L51.69 56.35L51.63 56.29L51.57 56.23L51.51 56.15L51.47 56.08L51.44 55.99L51.41 55.91L51.39 55.82L51.38 55.73L51.38 55.64L51.39 55.55L51.41 55.46L51.44 55.37L58.1 38.36L58.14 38.28L58.19 38.2L58.24 38.12L58.3 38.06L58.37 38L58.44 37.95L58.52 37.9L58.6 37.87L58.69 37.84L58.77 37.82L58.86 37.81L58.95 37.81L59.04 37.82L59.13 37.84Z" id="a4bnJsxwsL"></path><path d="M98.54 51.39C99.22 53.55 101.13 59.53 101.82 61.69C101.91 61.96 101.76 62.24 101.5 62.33C99.39 63 93.54 64.87 91.43 65.54C91.17 65.63 90.88 65.48 90.8 65.21C90.11 63.05 88.2 57.07 87.51 54.91C87.42 54.64 87.57 54.36 87.83 54.27C89.94 53.6 95.79 51.73 97.9 51.06C98.17 50.97 98.45 51.12 98.54 51.39Z" id="einYjJYok"></path><path d="M28.9 33.19C29.86 34.39 32.51 37.71 33.46 38.91C33.58 39.06 33.56 39.27 33.41 39.39C32.23 40.33 28.97 42.93 27.79 43.87C27.65 43.99 27.43 43.96 27.31 43.81C26.36 42.62 23.7 39.3 22.75 38.1C22.63 37.95 22.65 37.73 22.8 37.61C23.98 36.67 27.24 34.07 28.42 33.13C28.56 33.01 28.78 33.04 28.9 33.19Z" id="a1SFlLsJ5b"></path><path d="M97.48 99.1C97.05 102.9 95.85 113.44 95.42 117.25C95.36 117.72 94.93 118.06 94.46 118.01C90.66 117.58 80.11 116.38 76.31 115.95C75.83 115.9 75.49 115.47 75.54 114.99C75.98 111.19 77.17 100.64 77.6 96.84C77.66 96.37 78.09 96.02 78.56 96.08C82.36 96.51 92.91 97.71 96.71 98.14C97.19 98.19 97.53 98.62 97.48 99.1Z" id="e2zxvwKyrs"></path><path d="M127.98 86.49C125.51 88.16 118.66 92.8 116.19 94.47C115.88 94.68 115.45 94.58 115.23 94.26C113.47 91.65 108.57 84.41 106.8 81.81C106.58 81.48 106.65 81.04 106.96 80.84C109.43 79.16 116.29 74.53 118.76 72.86C119.06 72.65 119.49 72.74 119.71 73.07C121.48 75.68 126.38 82.91 128.14 85.52C128.36 85.85 128.29 86.28 127.98 86.49Z" id="aeoIZS4TG"></path><path d="M12.6 67.58C13.87 69.39 17.4 74.42 18.67 76.23C18.83 76.46 18.77 76.78 18.54 76.94C16.68 78.24 11.54 81.84 9.69 83.14C9.46 83.3 9.14 83.25 8.98 83.02C7.71 81.21 4.18 76.18 2.91 74.37C2.75 74.14 2.81 73.83 3.04 73.66C4.9 72.36 10.04 68.76 11.89 67.46C12.12 67.3 12.44 67.35 12.6 67.58Z" id="b693GkUpH"></path><path d="M29.05 98.2C29.63 101.99 31.24 112.48 31.82 116.26C31.89 116.73 31.57 117.18 31.1 117.25C27.31 117.83 16.82 119.43 13.04 120.01C12.57 120.09 12.12 119.76 12.05 119.29C11.47 115.51 9.86 105.01 9.29 101.23C9.21 100.76 9.54 100.32 10.01 100.24C13.79 99.66 24.28 98.06 28.07 97.48C28.54 97.41 28.98 97.73 29.05 98.2Z" id="b1MTV9kt4m"></path><path d="M13.24 72.83C15.76 74.87 22.74 80.53 25.25 82.57C25.57 82.83 25.61 83.3 25.34 83.63C23.21 86.26 17.29 93.56 15.16 96.19C14.89 96.52 14.42 96.58 14.11 96.32C11.59 94.28 4.61 88.62 2.1 86.58C1.78 86.33 1.74 85.85 2.01 85.53C4.14 82.89 10.06 75.6 12.19 72.97C12.46 72.64 12.93 72.58 13.24 72.83Z" id="aMju8By12"></path><path d="M38.84 38.38C40 41.4 43.22 49.79 44.38 52.81C44.53 53.19 44.33 53.63 43.94 53.79C40.8 55.07 32.11 58.63 28.97 59.91C28.58 60.07 28.15 59.89 28 59.52C26.84 56.49 23.62 48.11 22.46 45.08C22.32 44.7 22.52 44.27 22.91 44.11C26.04 42.82 34.74 39.27 37.87 37.98C38.26 37.82 38.7 38 38.84 38.38Z" id="d6q9mSkno"></path><path d="M97.23 22.78C96.9 24.28 95.98 28.43 95.65 29.93C95.61 30.11 95.43 30.22 95.25 30.18C93.8 29.79 89.76 28.71 88.31 28.32C88.13 28.27 88.01 28.08 88.05 27.89C88.38 26.39 89.3 22.24 89.63 20.75C89.67 20.56 89.85 20.45 90.04 20.5C91.49 20.89 95.52 21.97 96.98 22.36C97.16 22.41 97.27 22.6 97.23 22.78Z" id="d3wygY7lCK"></path><path d="M113.34 34.07C113.63 36.26 114.45 42.35 114.75 44.54C114.79 44.82 114.59 45.06 114.31 45.09C112.05 45.29 105.8 45.86 103.55 46.06C103.26 46.08 103.01 45.88 102.97 45.61C102.67 43.41 101.85 37.33 101.55 35.13C101.52 34.86 101.72 34.61 102 34.59C104.25 34.38 110.5 33.82 112.76 33.62C113.04 33.59 113.3 33.79 113.34 34.07Z" id="b3Ripejecl"></path><path d="M137.22 116.25C131.38 120.1 115.19 130.76 109.35 134.61C108.62 135.09 107.64 134.89 107.16 134.16C103.33 128.35 92.71 112.22 88.88 106.41C88.4 105.68 88.6 104.7 89.33 104.22C95.17 100.38 111.37 89.71 117.21 85.87C117.94 85.38 118.92 85.58 119.39 86.31C123.22 92.13 133.85 108.25 137.68 114.07C138.15 114.79 137.95 115.77 137.22 116.25Z" id="c6WUXIvdb"></path><path d="M98.74 42.14C96.22 46.56 89.21 58.81 86.68 63.23C86.37 63.78 85.67 63.95 85.14 63.61C80.85 60.9 68.97 53.39 64.68 50.68C64.15 50.34 63.97 49.62 64.28 49.07C66.81 44.65 73.82 32.4 76.35 27.98C76.66 27.43 77.35 27.26 77.89 27.59C82.17 30.3 94.06 37.82 98.35 40.52C98.88 40.86 99.06 41.59 98.74 42.14Z" id="dX4Kb3lPD"></path><path d="M49.57 93.4C50.79 97.54 54.18 109.02 55.4 113.16C55.55 113.68 55.26 114.22 54.74 114.37C50.61 115.59 39.16 118.98 35.03 120.2C34.51 120.35 33.97 120.05 33.82 119.53C32.59 115.4 29.2 103.92 27.98 99.78C27.83 99.26 28.12 98.72 28.64 98.56C32.77 97.34 44.22 93.96 48.35 92.74C48.87 92.59 49.41 92.88 49.57 93.4Z" id="g7kZLs7Ds"></path><path d="M17.51 26.18C19.53 27.07 25.15 29.55 27.18 30.44C27.43 30.56 27.55 30.86 27.43 31.11C26.52 33.19 23.99 38.93 23.07 41C22.96 41.26 22.66 41.38 22.41 41.27C20.38 40.38 14.76 37.9 12.74 37.01C12.48 36.89 12.37 36.59 12.48 36.33C13.4 34.26 15.93 28.52 16.84 26.45C16.95 26.19 17.25 26.07 17.51 26.18Z" id="ctpkzPdDY"></path><path d="M45.29 91.93C41.59 92.9 31.32 95.6 27.62 96.57C27.16 96.69 26.69 96.41 26.57 95.95C25.59 92.25 22.89 81.99 21.92 78.28C21.8 77.82 22.08 77.35 22.54 77.23C26.24 76.25 36.5 73.56 40.21 72.58C40.67 72.46 41.14 72.74 41.26 73.2C42.24 76.9 44.94 87.17 45.91 90.87C46.03 91.33 45.75 91.8 45.29 91.93Z" id="bUZY7XWed"></path><path d="M41.55 16.85C42.09 17.66 43.58 19.91 44.12 20.72C44.18 20.83 44.16 20.96 44.06 21.03C43.26 21.56 41.05 23.02 40.25 23.55C40.15 23.62 40.01 23.59 39.95 23.49C39.41 22.67 37.92 20.42 37.38 19.61C37.31 19.51 37.34 19.37 37.44 19.31C38.24 18.78 40.45 17.31 41.25 16.78C41.35 16.72 41.48 16.75 41.55 16.85Z" id="adtz1vy2v"></path><path d="M49.92 56.46C50.07 57.42 50.49 60.08 50.65 61.05C50.67 61.17 50.59 61.28 50.47 61.3C49.52 61.45 46.9 61.87 45.96 62.02C45.84 62.04 45.73 61.96 45.71 61.84C45.56 60.87 45.13 58.21 44.98 57.24C44.96 57.12 45.04 57.01 45.16 56.99C46.1 56.84 48.72 56.42 49.67 56.27C49.79 56.25 49.9 56.33 49.92 56.46Z" id="a19XQ2ehB2"></path><path d="M48.7 48.98C48.87 49.23 49.33 49.92 49.5 50.18C49.52 50.21 49.51 50.25 49.48 50.27C49.22 50.44 48.53 50.9 48.28 51.06C48.25 51.09 48.2 51.08 48.18 51.05C48.02 50.79 47.55 50.1 47.39 49.85C47.37 49.81 47.38 49.77 47.41 49.75C47.66 49.58 48.36 49.12 48.61 48.96C48.64 48.94 48.68 48.94 48.7 48.98Z" id="bkK5q9ZJj"></path><path d="M122.91 0.02L123.13 0.04L123.36 0.07L123.57 0.11L123.79 0.16L124 0.22L124.21 0.28L124.41 0.36L124.61 0.44L124.81 0.52L125 0.62L125.19 0.72L125.38 0.83L125.56 0.95L125.73 1.07L125.9 1.2L126.06 1.33L126.22 1.48L126.38 1.62L126.52 1.78L126.67 1.94L126.8 2.1L126.93 2.27L127.05 2.44L127.17 2.62L127.28 2.81L127.38 3L127.48 3.19L127.56 3.39L127.64 3.59L127.72 3.79L127.78 4L127.84 4.21L127.89 4.43L127.93 4.64L127.96 4.87L127.98 5.09L128 5.32L128 5.54L128 122.46L128 122.68L127.98 122.91L127.96 123.13L127.93 123.36L127.89 123.57L127.84 123.79L127.78 124L127.72 124.21L127.64 124.41L127.56 124.61L127.48 124.81L127.38 125L127.28 125.19L127.17 125.38L127.05 125.56L126.93 125.73L126.8 125.9L126.67 126.06L126.52 126.22L126.38 126.38L126.22 126.52L126.06 126.67L125.9 126.8L125.73 126.93L125.56 127.05L125.38 127.17L125.19 127.28L125 127.38L124.81 127.48L124.61 127.56L124.41 127.64L124.21 127.72L124 127.78L123.79 127.84L123.57 127.89L123.36 127.93L123.13 127.96L122.91 127.98L122.68 128L122.46 128L5.54 128L5.32 128L5.09 127.98L4.87 127.96L4.64 127.93L4.43 127.89L4.21 127.84L4 127.78L3.79 127.72L3.59 127.64L3.39 127.56L3.19 127.48L3 127.38L2.81 127.28L2.62 127.17L2.44 127.05L2.27 126.93L2.1 126.8L1.94 126.67L1.78 126.52L1.62 126.38L1.48 126.22L1.33 126.06L1.2 125.9L1.07 125.73L0.95 125.56L0.83 125.38L0.72 125.19L0.62 125L0.52 124.81L0.44 124.61L0.36 124.41L0.28 124.21L0.22 124L0.16 123.79L0.11 123.57L0.07 123.36L0.04 123.13L0.02 122.91L0 122.68L0 122.46L0 5.54L0 5.32L0.02 5.09L0.04 4.87L0.07 4.64L0.11 4.43L0.16 4.21L0.22 4L0.28 3.79L0.36 3.59L0.44 3.39L0.52 3.19L0.62 3L0.72 2.81L0.83 2.62L0.95 2.44L1.07 2.27L1.2 2.1L1.33 1.94L1.48 1.78L1.62 1.62L1.78 1.48L1.94 1.33L2.1 1.2L2.27 1.07L2.44 0.95L2.62 0.83L2.81 0.72L3 0.62L3.19 0.52L3.39 0.44L3.59 0.36L3.79 0.28L4 0.22L4.21 0.16L4.43 0.11L4.64 0.07L4.87 0.04L5.09 0.02L5.32 0L5.54 0L122.46 0L122.68 0L122.91 0.02ZM12.65 8L12.45 8.01L12.26 8.03L12.06 8.06L11.87 8.1L11.69 8.14L11.5 8.19L11.32 8.24L11.14 8.31L10.96 8.38L10.79 8.46L10.62 8.54L10.46 8.63L10.3 8.72L10.14 8.83L9.99 8.93L9.84 9.05L9.69 9.16L9.56 9.29L9.42 9.42L9.29 9.55L9.17 9.69L9.05 9.84L8.94 9.98L8.83 10.14L8.73 10.29L8.63 10.45L8.54 10.62L8.46 10.79L8.38 10.96L8.31 11.14L8.25 11.32L8.19 11.5L8.14 11.68L8.1 11.87L8.06 12.06L8.04 12.26L8.02 12.45L8 12.65L8 12.85L8 115.15L8 115.35L8.02 115.54L8.04 115.74L8.06 115.93L8.1 116.12L8.14 116.31L8.19 116.5L8.25 116.68L8.31 116.86L8.38 117.03L8.46 117.21L8.54 117.37L8.63 117.54L8.73 117.7L8.83 117.86L8.94 118.01L9.05 118.16L9.17 118.3L9.29 118.44L9.42 118.58L9.56 118.71L9.69 118.83L9.84 118.95L9.99 119.06L10.14 119.17L10.3 119.27L10.46 119.37L10.62 119.46L10.79 119.54L10.96 119.62L11.14 119.69L11.32 119.75L11.5 119.81L11.69 119.86L11.87 119.9L12.06 119.93L12.26 119.96L12.45 119.98L12.65 119.99L12.85 120L115.15 120L115.35 119.99L115.55 119.98L115.74 119.96L115.94 119.93L116.13 119.9L116.31 119.86L116.5 119.81L116.68 119.75L116.86 119.69L117.04 119.62L117.21 119.54L117.38 119.46L117.54 119.37L117.7 119.27L117.86 119.17L118.01 119.06L118.16 118.95L118.31 118.83L118.44 118.71L118.58 118.58L118.71 118.44L118.83 118.3L118.95 118.16L119.06 118.01L119.17 117.86L119.27 117.7L119.37 117.54L119.46 117.37L119.54 117.21L119.62 117.03L119.69 116.86L119.75 116.68L119.81 116.5L119.86 116.31L119.9 116.12L119.94 115.93L119.96 115.74L119.98 115.54L120 115.35L120 115.15L120 12.85L120 12.65L119.98 12.45L119.96 12.26L119.94 12.06L119.9 11.87L119.86 11.68L119.81 11.5L119.75 11.32L119.69 11.14L119.62 10.96L119.54 10.79L119.46 10.62L119.37 10.45L119.27 10.29L119.17 10.14L119.06 9.98L118.95 9.84L118.83 9.69L118.71 9.55L118.58 9.42L118.44 9.29L118.31 9.16L118.16 9.05L118.01 8.93L117.86 8.83L117.7 8.72L117.54 8.63L117.38 8.54L117.21 8.46L117.04 8.38L116.86 8.31L116.68 8.24L116.5 8.19L116.31 8.14L116.13 8.1L115.94 8.06L115.74 8.03L115.55 8.01L115.35 8L115.15 8L12.85 8L12.65 8Z" id="bIYtrHUr"></path><path d="M101.24 87.24C101.39 88.2 101.82 90.87 101.97 91.83C101.99 91.95 101.91 92.06 101.79 92.08C100.85 92.23 98.23 92.65 97.28 92.8C97.16 92.82 97.05 92.74 97.03 92.62C96.88 91.66 96.45 88.99 96.3 88.03C96.28 87.91 96.36 87.8 96.48 87.78C97.42 87.63 100.04 87.21 100.99 87.06C101.11 87.04 101.22 87.12 101.24 87.24Z" id="a1ESq9sSxH"></path></defs><g><g><g><use xlink:href="#g1hZdSsur9" opacity="1" fill="#8d9ecb" fill-opacity="1"></use><g><use xlink:href="#g1hZdSsur9" opacity="1" fill-opacity="0" stroke="#000000" stroke-width="1" stroke-opacity="0"></use></g></g><g><use xlink:href="#g4kS0Ix84b" opacity="1" fill="#2c3b62" fill-opacity="1"></use><g><use xlink:href="#g4kS0Ix84b" opacity="1" fill-opacity="0" stroke="#000000" stroke-width="1" stroke-opacity="0"></use></g></g><g><g><filter id="shadow10099372" x="12" y="5.81" width="109.61" height="140.05" filterUnits="userSpaceOnUse" primitiveUnits="userSpaceOnUse"><feFlood></feFlood><feComposite in2="SourceAlpha" operator="in"></feComposite><feGaussianBlur stdDeviation="3.16"></feGaussianBlur><feOffset dx="-1" dy="-5" result="afterOffset"></feOffset><feFlood flood-color="#bcc8e9" flood-opacity="1"></feFlood><feComposite in2="afterOffset" operator="in"></feComposite><feMorphology operator="dilate" radius="2"></feMorphology><feComposite in2="SourceAlpha" operator="out"></feComposite></filter><path d="M63.53 83.49L63.62 83.52L80.63 90.18L80.72 90.22L80.8 90.26L80.87 90.32L80.93 90.38L80.99 90.45L81.04 90.52L81.09 90.6L81.12 90.68L81.15 90.76L81.17 90.85L81.18 90.94L81.18 91.03L81.17 91.12L81.15 91.21L81.12 91.3L74.46 108.31L74.42 108.4L74.37 108.48L74.32 108.55L74.26 108.62L74.19 108.67L74.12 108.73L74.04 108.77L73.96 108.8L73.87 108.83L73.79 108.85L73.7 108.86L73.61 108.86L73.52 108.85L73.43 108.83L73.34 108.8L56.33 102.14L56.24 102.1L56.16 102.05L56.09 102L56.02 101.94L55.96 101.87L55.91 101.8L55.87 101.72L55.83 101.64L55.81 101.55L55.79 101.47L55.78 101.38L55.78 101.29L55.79 101.2L55.81 101.11L55.84 101.02L62.5 84.01L62.54 83.92L62.58 83.84L62.64 83.77L62.7 83.7L62.77 83.64L62.84 83.59L62.92 83.55L63 83.51L63.08 83.49L63.17 83.47L63.26 83.46L63.35 83.46L63.44 83.47L63.53 83.49ZM70.96 64.5L71.05 64.53L88.06 71.19L88.15 71.23L88.23 71.28L88.3 71.33L88.37 71.4L88.43 71.46L88.48 71.54L88.52 71.61L88.56 71.69L88.59 71.78L88.6 71.87L88.61 71.95L88.61 72.04L88.6 72.14L88.58 72.23L88.55 72.32L81.89 89.33L81.85 89.41L81.81 89.49L81.75 89.56L81.69 89.63L81.62 89.69L81.55 89.74L81.47 89.78L81.39 89.82L81.31 89.85L81.22 89.87L81.13 89.87L81.04 89.87L80.95 89.87L80.86 89.85L80.77 89.82L63.76 83.16L63.68 83.12L63.6 83.07L63.52 83.01L63.46 82.95L63.4 82.89L63.35 82.81L63.3 82.74L63.27 82.65L63.24 82.57L63.22 82.48L63.21 82.39L63.21 82.3L63.22 82.21L63.24 82.12L63.27 82.03L69.93 65.02L69.97 64.94L70.02 64.86L70.07 64.78L70.13 64.72L70.2 64.66L70.27 64.61L70.35 64.56L70.43 64.53L70.52 64.5L70.6 64.48L70.69 64.47L70.78 64.47L70.87 64.48L70.96 64.5ZM51.75 56.88L51.84 56.91L68.85 63.57L68.94 63.61L69.02 63.65L69.09 63.71L69.16 63.77L69.22 63.84L69.27 63.91L69.31 63.99L69.35 64.07L69.37 64.15L69.39 64.24L69.4 64.33L69.4 64.42L69.39 64.51L69.37 64.6L69.34 64.69L62.68 81.7L62.64 81.78L62.6 81.86L62.54 81.94L62.48 82L62.41 82.06L62.34 82.11L62.26 82.16L62.18 82.19L62.1 82.22L62.01 82.24L61.92 82.25L61.83 82.25L61.74 82.24L61.65 82.22L61.56 82.19L44.55 75.53L44.46 75.49L44.38 75.44L44.31 75.39L44.24 75.33L44.19 75.26L44.13 75.19L44.09 75.11L44.05 75.03L44.03 74.94L44.01 74.86L44 74.77L44 74.68L44.01 74.59L44.03 74.5L44.06 74.41L50.72 57.4L50.76 57.31L50.81 57.23L50.86 57.16L50.92 57.09L50.99 57.03L51.06 56.98L51.14 56.94L51.22 56.9L51.31 56.87L51.39 56.86L51.48 56.85L51.57 56.85L51.66 56.86L51.75 56.88ZM59.13 37.84L59.22 37.87L76.23 44.53L76.32 44.57L76.4 44.62L76.47 44.67L76.54 44.74L76.6 44.8L76.65 44.88L76.69 44.95L76.73 45.03L76.75 45.12L76.77 45.21L76.78 45.29L76.78 45.38L76.77 45.48L76.75 45.57L76.72 45.66L70.06 62.67L70.02 62.75L69.98 62.83L69.92 62.9L69.86 62.97L69.79 63.03L69.72 63.08L69.64 63.12L69.56 63.16L69.48 63.19L69.39 63.21L69.3 63.21L69.21 63.21L69.12 63.21L69.03 63.19L68.94 63.16L51.93 56.49L51.84 56.46L51.76 56.41L51.69 56.35L51.63 56.29L51.57 56.23L51.51 56.15L51.47 56.08L51.44 55.99L51.41 55.91L51.39 55.82L51.38 55.73L51.38 55.64L51.39 55.55L51.41 55.46L51.44 55.37L58.1 38.36L58.14 38.28L58.19 38.2L58.24 38.12L58.3 38.06L58.37 38L58.44 37.95L58.52 37.9L58.6 37.87L58.69 37.84L58.77 37.82L58.86 37.81L58.95 37.81L59.04 37.82L59.13 37.84Z" id="aCk2XwDFn" fill="white" fill-opacity="1" filter="url(#shadow10099372)"></path></g><use xlink:href="#a4bnJsxwsL" opacity="1" fill="#192136" fill-opacity="1"></use><g><use xlink:href="#a4bnJsxwsL" opacity="1" fill-opacity="0" stroke="#000000" stroke-width="1" stroke-opacity="0"></use></g><g><filter id="shadow5861564" x="17" y="10.81" width="99.61" height="126.05" filterUnits="userSpaceOnUse" primitiveUnits="userSpaceOnUse"><feFlood></feFlood><feComposite in2="SourceAlpha" operator="out"></feComposite><feGaussianBlur stdDeviation="3.16"></feGaussianBlur><feOffset dx="1" dy="1" result="afterOffset"></feOffset><feFlood flood-color="#3b4e80" flood-opacity="0.07"></feFlood><feComposite in2="afterOffset" operator="in"></feComposite><feMorphology operator="dilate" radius="1"></feMorphology><feComposite in2="SourceAlpha" operator="in"></feComposite></filter><path d="M63.53 83.49L63.62 83.52L80.63 90.18L80.72 90.22L80.8 90.26L80.87 90.32L80.93 90.38L80.99 90.45L81.04 90.52L81.09 90.6L81.12 90.68L81.15 90.76L81.17 90.85L81.18 90.94L81.18 91.03L81.17 91.12L81.15 91.21L81.12 91.3L74.46 108.31L74.42 108.4L74.37 108.48L74.32 108.55L74.26 108.62L74.19 108.67L74.12 108.73L74.04 108.77L73.96 108.8L73.87 108.83L73.79 108.85L73.7 108.86L73.61 108.86L73.52 108.85L73.43 108.83L73.34 108.8L56.33 102.14L56.24 102.1L56.16 102.05L56.09 102L56.02 101.94L55.96 101.87L55.91 101.8L55.87 101.72L55.83 101.64L55.81 101.55L55.79 101.47L55.78 101.38L55.78 101.29L55.79 101.2L55.81 101.11L55.84 101.02L62.5 84.01L62.54 83.92L62.58 83.84L62.64 83.77L62.7 83.7L62.77 83.64L62.84 83.59L62.92 83.55L63 83.51L63.08 83.49L63.17 83.47L63.26 83.46L63.35 83.46L63.44 83.47L63.53 83.49ZM70.96 64.5L71.05 64.53L88.06 71.19L88.15 71.23L88.23 71.28L88.3 71.33L88.37 71.4L88.43 71.46L88.48 71.54L88.52 71.61L88.56 71.69L88.59 71.78L88.6 71.87L88.61 71.95L88.61 72.04L88.6 72.14L88.58 72.23L88.55 72.32L81.89 89.33L81.85 89.41L81.81 89.49L81.75 89.56L81.69 89.63L81.62 89.69L81.55 89.74L81.47 89.78L81.39 89.82L81.31 89.85L81.22 89.87L81.13 89.87L81.04 89.87L80.95 89.87L80.86 89.85L80.77 89.82L63.76 83.16L63.68 83.12L63.6 83.07L63.52 83.01L63.46 82.95L63.4 82.89L63.35 82.81L63.3 82.74L63.27 82.65L63.24 82.57L63.22 82.48L63.21 82.39L63.21 82.3L63.22 82.21L63.24 82.12L63.27 82.03L69.93 65.02L69.97 64.94L70.02 64.86L70.07 64.78L70.13 64.72L70.2 64.66L70.27 64.61L70.35 64.56L70.43 64.53L70.52 64.5L70.6 64.48L70.69 64.47L70.78 64.47L70.87 64.48L70.96 64.5ZM51.75 56.88L51.84 56.91L68.85 63.57L68.94 63.61L69.02 63.65L69.09 63.71L69.16 63.77L69.22 63.84L69.27 63.91L69.31 63.99L69.35 64.07L69.37 64.15L69.39 64.24L69.4 64.33L69.4 64.42L69.39 64.51L69.37 64.6L69.34 64.69L62.68 81.7L62.64 81.78L62.6 81.86L62.54 81.94L62.48 82L62.41 82.06L62.34 82.11L62.26 82.16L62.18 82.19L62.1 82.22L62.01 82.24L61.92 82.25L61.83 82.25L61.74 82.24L61.65 82.22L61.56 82.19L44.55 75.53L44.46 75.49L44.38 75.44L44.31 75.39L44.24 75.33L44.19 75.26L44.13 75.19L44.09 75.11L44.05 75.03L44.03 74.94L44.01 74.86L44 74.77L44 74.68L44.01 74.59L44.03 74.5L44.06 74.41L50.72 57.4L50.76 57.31L50.81 57.23L50.86 57.16L50.92 57.09L50.99 57.03L51.06 56.98L51.14 56.94L51.22 56.9L51.31 56.87L51.39 56.86L51.48 56.85L51.57 56.85L51.66 56.86L51.75 56.88ZM59.13 37.84L59.22 37.87L76.23 44.53L76.32 44.57L76.4 44.62L76.47 44.67L76.54 44.74L76.6 44.8L76.65 44.88L76.69 44.95L76.73 45.03L76.75 45.12L76.77 45.21L76.78 45.29L76.78 45.38L76.77 45.48L76.75 45.57L76.72 45.66L70.06 62.67L70.02 62.75L69.98 62.83L69.92 62.9L69.86 62.97L69.79 63.03L69.72 63.08L69.64 63.12L69.56 63.16L69.48 63.19L69.39 63.21L69.3 63.21L69.21 63.21L69.12 63.21L69.03 63.19L68.94 63.16L51.93 56.49L51.84 56.46L51.76 56.41L51.69 56.35L51.63 56.29L51.57 56.23L51.51 56.15L51.47 56.08L51.44 55.99L51.41 55.91L51.39 55.82L51.38 55.73L51.38 55.64L51.39 55.55L51.41 55.46L51.44 55.37L58.1 38.36L58.14 38.28L58.19 38.2L58.24 38.12L58.3 38.06L58.37 38L58.44 37.95L58.52 37.9L58.6 37.87L58.69 37.84L58.77 37.82L58.86 37.81L58.95 37.81L59.04 37.82L59.13 37.84Z" id="gTEC8Yl2K" fill="white" fill-opacity="1" filter="url(#shadow5861564)"></path></g></g><g><use xlink:href="#einYjJYok" opacity="1" fill="#1e2944" fill-opacity="1"></use><g><use xlink:href="#einYjJYok" opacity="1" fill-opacity="0" stroke="#000000" stroke-width="1" stroke-opacity="0"></use></g></g><g><g><filter id="shadow14457336" x="-4.33" y="6.06" width="65.87" height="65.89" filterUnits="userSpaceOnUse" primitiveUnits="userSpaceOnUse"><feFlood></feFlood><feComposite in2="SourceAlpha" operator="in"></feComposite><feGaussianBlur stdDeviation="3.16"></feGaussianBlur><feOffset dx="-1" dy="-1" result="afterOffset"></feOffset><feFlood flood-color="#ffffff" flood-opacity="0.5"></feFlood><feComposite in2="afterOffset" operator="in"></feComposite><feMorphology operator="dilate" radius="1"></feMorphology><feComposite in2="SourceAlpha" operator="out"></feComposite></filter><path d="M28.9 33.19C29.86 34.39 32.51 37.71 33.46 38.91C33.58 39.06 33.56 39.27 33.41 39.39C32.23 40.33 28.97 42.93 27.79 43.87C27.65 43.99 27.43 43.96 27.31 43.81C26.36 42.62 23.7 39.3 22.75 38.1C22.63 37.95 22.65 37.73 22.8 37.61C23.98 36.67 27.24 34.07 28.42 33.13C28.56 33.01 28.78 33.04 28.9 33.19Z" id="a1HgdoOlhD" fill="white" fill-opacity="1" filter="url(#shadow14457336)"></path></g><use xlink:href="#a1SFlLsJ5b" opacity="1" fill="#192136" fill-opacity="1"></use><g><use xlink:href="#a1SFlLsJ5b" opacity="1" fill-opacity="0" stroke="#000000" stroke-width="1" stroke-opacity="0"></use></g></g><g><use xlink:href="#e2zxvwKyrs" opacity="1" fill="#3b4e80" fill-opacity="1"></use><g><use xlink:href="#e2zxvwKyrs" opacity="1" fill-opacity="0" stroke="#000000" stroke-width="1" stroke-opacity="0"></use></g></g><g><use xlink:href="#aeoIZS4TG" opacity="1" fill="#2c3b62" fill-opacity="1"></use><g><use xlink:href="#aeoIZS4TG" opacity="1" fill-opacity="0" stroke="#000000" stroke-width="1" stroke-opacity="0"></use></g></g><g><use xlink:href="#b693GkUpH" opacity="1" fill="#121826" fill-opacity="1"></use><g><use xlink:href="#b693GkUpH" opacity="1" fill-opacity="0" stroke="#000000" stroke-width="1" stroke-opacity="0"></use></g></g><g><use xlink:href="#b1MTV9kt4m" opacity="1" fill="#394c7d" fill-opacity="1"></use><g><use xlink:href="#b1MTV9kt4m" opacity="1" fill-opacity="0" stroke="#000000" stroke-width="1" stroke-opacity="0"></use></g></g><g><use xlink:href="#aMju8By12" opacity="1" fill="#2b3b63" fill-opacity="1"></use><g><use xlink:href="#aMju8By12" opacity="1" fill-opacity="0" stroke="#000000" stroke-width="1" stroke-opacity="0"></use></g></g><g><use xlink:href="#d6q9mSkno" opacity="1" fill="#2c3b62" fill-opacity="1"></use><g><use xlink:href="#d6q9mSkno" opacity="1" fill-opacity="0" stroke="#000000" stroke-width="1" stroke-opacity="0"></use></g></g><g><use xlink:href="#d3wygY7lCK" opacity="1" fill="#192239" fill-opacity="1"></use><g><use xlink:href="#d3wygY7lCK" opacity="1" fill-opacity="0" stroke="#000000" stroke-width="1" stroke-opacity="0"></use></g></g><g><use xlink:href="#b3Ripejecl" opacity="1" fill="#263356" fill-opacity="1"></use><g><use xlink:href="#b3Ripejecl" opacity="1" fill-opacity="0" stroke="#000000" stroke-width="1" stroke-opacity="0"></use></g></g><g><g><filter id="shadow461096" x="58.62" y="55.6" width="110.31" height="113.27" filterUnits="userSpaceOnUse" primitiveUnits="userSpaceOnUse"><feFlood></feFlood><feComposite in2="SourceAlpha" operator="in"></feComposite><feGaussianBlur stdDeviation="3.16"></feGaussianBlur><feOffset dx="-1" dy="4" result="afterOffset"></feOffset><feFlood flood-color="#040403" flood-opacity="0.4"></feFlood><feComposite in2="afterOffset" operator="in"></feComposite><feMorphology operator="dilate" radius="1"></feMorphology><feComposite in2="SourceAlpha" operator="out"></feComposite></filter><path d="M137.22 116.25C131.38 120.1 115.19 130.76 109.35 134.61C108.62 135.09 107.64 134.89 107.16 134.16C103.33 128.35 92.71 112.22 88.88 106.41C88.4 105.68 88.6 104.7 89.33 104.22C95.17 100.38 111.37 89.71 117.21 85.87C117.94 85.38 118.92 85.58 119.39 86.31C123.22 92.13 133.85 108.25 137.68 114.07C138.15 114.79 137.95 115.77 137.22 116.25Z" id="a1ULvyDx6X" fill="white" fill-opacity="1" filter="url(#shadow461096)"></path></g><use xlink:href="#c6WUXIvdb" opacity="1" fill="#5873ba" fill-opacity="1"></use><g><use xlink:href="#c6WUXIvdb" opacity="1" fill-opacity="0" stroke="#000000" stroke-width="1" stroke-opacity="0"></use></g></g><g><g><filter id="shadow1895920" x="37.13" y="0.42" width="89.77" height="91.37" filterUnits="userSpaceOnUse" primitiveUnits="userSpaceOnUse"><feFlood></feFlood><feComposite in2="SourceAlpha" operator="in"></feComposite><feGaussianBlur stdDeviation="3.16"></feGaussianBlur><feOffset dx="-1" dy="1" result="afterOffset"></feOffset><feFlood flood-color="#040403" flood-opacity="0.25"></feFlood><feComposite in2="afterOffset" operator="in"></feComposite><feMorphology operator="dilate" radius="1"></feMorphology><feComposite in2="SourceAlpha" operator="out"></feComposite></filter><path d="M98.74 42.14C96.22 46.56 89.21 58.81 86.68 63.23C86.37 63.78 85.67 63.95 85.14 63.61C80.85 60.9 68.97 53.39 64.68 50.68C64.15 50.34 63.97 49.62 64.28 49.07C66.81 44.65 73.82 32.4 76.35 27.98C76.66 27.43 77.35 27.26 77.89 27.59C82.17 30.3 94.06 37.82 98.35 40.52C98.88 40.86 99.06 41.59 98.74 42.14Z" id="dGL2hRfgJ" fill="white" fill-opacity="1" filter="url(#shadow1895920)"></path></g><use xlink:href="#dX4Kb3lPD" opacity="1" fill="#475e9b" fill-opacity="1"></use><g><use xlink:href="#dX4Kb3lPD" opacity="1" fill-opacity="0" stroke="#000000" stroke-width="1" stroke-opacity="0"></use></g></g><g><g><filter id="shadow4100729" x="0.94" y="65.7" width="82.5" height="82.53" filterUnits="userSpaceOnUse" primitiveUnits="userSpaceOnUse"><feFlood></feFlood><feComposite in2="SourceAlpha" operator="in"></feComposite><feGaussianBlur stdDeviation="3.16"></feGaussianBlur><feOffset dx="-1" dy="1" result="afterOffset"></feOffset><feFlood flood-color="#040403" flood-opacity="0.32"></feFlood><feComposite in2="afterOffset" operator="in"></feComposite><feMorphology operator="dilate" radius="1"></feMorphology><feComposite in2="SourceAlpha" operator="out"></feComposite></filter><path d="M49.57 93.4C50.79 97.54 54.18 109.02 55.4 113.16C55.55 113.68 55.26 114.22 54.74 114.37C50.61 115.59 39.16 118.98 35.03 120.2C34.51 120.35 33.97 120.05 33.82 119.53C32.59 115.4 29.2 103.92 27.98 99.78C27.83 99.26 28.12 98.72 28.64 98.56C32.77 97.34 44.22 93.96 48.35 92.74C48.87 92.59 49.41 92.88 49.57 93.4Z" id="drKzClWCN" fill="white" fill-opacity="1" filter="url(#shadow4100729)"></path></g><use xlink:href="#g7kZLs7Ds" opacity="1" fill="#475e9b" fill-opacity="1"></use><g><use xlink:href="#g7kZLs7Ds" opacity="1" fill-opacity="0" stroke="#000000" stroke-width="1" stroke-opacity="0"></use></g></g><g><use xlink:href="#ctpkzPdDY" opacity="1" fill="#222e4d" fill-opacity="1"></use><g><use xlink:href="#ctpkzPdDY" opacity="1" fill-opacity="0" stroke="#000000" stroke-width="1" stroke-opacity="0"></use></g></g><g><g><filter id="shadow6799808" x="-6.11" y="44.55" width="82.04" height="81.04" filterUnits="userSpaceOnUse" primitiveUnits="userSpaceOnUse"><feFlood></feFlood><feComposite in2="SourceAlpha" operator="in"></feComposite><feGaussianBlur stdDeviation="3.16"></feGaussianBlur><feOffset dx="-2" dy="1" result="afterOffset"></feOffset><feFlood flood-color="#040403" flood-opacity="0.25"></feFlood><feComposite in2="afterOffset" operator="in"></feComposite><feMorphology operator="dilate" radius="1"></feMorphology><feComposite in2="SourceAlpha" operator="out"></feComposite></filter><path d="M45.29 91.93C41.59 92.9 31.32 95.6 27.62 96.57C27.16 96.69 26.69 96.41 26.57 95.95C25.59 92.25 22.89 81.99 21.92 78.28C21.8 77.82 22.08 77.35 22.54 77.23C26.24 76.25 36.5 73.56 40.21 72.58C40.67 72.46 41.14 72.74 41.26 73.2C42.24 76.9 44.94 87.17 45.91 90.87C46.03 91.33 45.75 91.8 45.29 91.93Z" id="d1G68UvDo0" fill="white" fill-opacity="1" filter="url(#shadow6799808)"></path></g><use xlink:href="#bUZY7XWed" opacity="1" fill="#364a7b" fill-opacity="1"></use><g><use xlink:href="#bUZY7XWed" opacity="1" fill-opacity="0" stroke="#000000" stroke-width="1" stroke-opacity="0"></use></g></g><g><g><filter id="shadow2423249" x="9.34" y="-11.25" width="63.81" height="64.84" filterUnits="userSpaceOnUse" primitiveUnits="userSpaceOnUse"><feFlood></feFlood><feComposite in2="SourceAlpha" operator="in"></feComposite><feGaussianBlur stdDeviation="3.16"></feGaussianBlur><feOffset dx="-1" dy="2" result="afterOffset"></feOffset><feFlood flood-color="#ffffff" flood-opacity="0.5"></feFlood><feComposite in2="afterOffset" operator="in"></feComposite><feMorphology operator="dilate" radius="1"></feMorphology><feComposite in2="SourceAlpha" operator="out"></feComposite></filter><path d="M41.55 16.85C42.09 17.66 43.58 19.91 44.12 20.72C44.18 20.83 44.16 20.96 44.06 21.03C43.26 21.56 41.05 23.02 40.25 23.55C40.15 23.62 40.01 23.59 39.95 23.49C39.41 22.67 37.92 20.42 37.38 19.61C37.31 19.51 37.34 19.37 37.44 19.31C38.24 18.78 40.45 17.31 41.25 16.78C41.35 16.72 41.48 16.75 41.55 16.85Z" id="a26gjnfzh2" fill="white" fill-opacity="1" filter="url(#shadow2423249)"></path></g><use xlink:href="#adtz1vy2v" opacity="1" fill="#151c2f" fill-opacity="1"></use><g><use xlink:href="#adtz1vy2v" opacity="1" fill-opacity="0" stroke="#000000" stroke-width="1" stroke-opacity="0"></use></g></g><g><use xlink:href="#a19XQ2ehB2" opacity="1" fill="#151c2f" fill-opacity="1"></use><g><use xlink:href="#a19XQ2ehB2" opacity="1" fill-opacity="0" stroke="#000000" stroke-width="1" stroke-opacity="0"></use></g></g><g><use xlink:href="#bkK5q9ZJj" opacity="1" fill="#151c2f" fill-opacity="1"></use><g><use xlink:href="#bkK5q9ZJj" opacity="1" fill-opacity="0" stroke="#000000" stroke-width="1" stroke-opacity="0"></use></g></g><g><use xlink:href="#bIYtrHUr" opacity="1" fill="#192136" fill-opacity="1"></use><g><use xlink:href="#bIYtrHUr" opacity="1" fill-opacity="0" stroke="#000000" stroke-width="1" stroke-opacity="0"></use></g></g><g><use xlink:href="#a1ESq9sSxH" opacity="1" fill="#151c2f" fill-opacity="1"></use><g><use xlink:href="#a1ESq9sSxH" opacity="1" fill-opacity="0" stroke="#000000" stroke-width="1" stroke-opacity="0"></use></g></g></g></g></svg>