<?xml version="1.0" encoding="UTF-8" standalone="no"?>
<!DOCTYPE svg PUBLIC "-//W3C//DTD SVG 1.1//EN" "http://www.w3.org/Graphics/SVG/1.1/DTD/svg11.dtd">
<svg version="1.1" xmlns="http://www.w3.org/2000/svg" xmlns:xlink="http://www.w3.org/1999/xlink" preserveAspectRatio="xMidYMid meet" viewBox="0 0 128 128" width="128" height="128"><defs><path d="M128 5.54C128 30.04 128 97.96 128 122.46C128 125.52 125.52 128 122.46 128C97.96 128 30.04 128 5.54 128C2.48 128 0 125.52 0 122.46C0 97.96 0 30.04 0 5.54C0 2.48 2.48 0 5.54 0C30.04 0 97.96 0 122.46 0C125.52 0 128 2.48 128 5.54Z" id="aTIF2U2qQ"></path><path d="M120 12.45C120 33.88 120 93.32 120 114.75C120 117.43 117.83 119.6 115.15 119.6C93.72 119.6 34.28 119.6 12.85 119.6C10.17 119.6 8 117.43 8 114.75C8 93.32 8 33.88 8 12.45C8 9.77 10.17 7.6 12.85 7.6C34.28 7.6 93.72 7.6 115.15 7.6C117.83 7.6 120 9.77 120 12.45Z" id="am52wKYKV"></path><path d="M115.71 98.34L115.8 98.36L115.89 98.4L115.97 98.44L116.04 98.49L116.11 98.54L116.18 98.61L116.23 98.68L116.28 98.75L116.32 98.83L116.36 98.91L116.38 99L116.39 99.09L116.4 99.19L116.4 117.45L116.39 117.55L116.38 117.64L116.36 117.73L116.32 117.81L116.28 117.89L116.23 117.97L116.18 118.03L116.11 118.1L116.04 118.15L115.97 118.2L115.89 118.24L115.8 118.28L115.71 118.3L115.62 118.31L115.53 118.32L97.12 118.32L97.02 118.31L96.93 118.3L96.84 118.28L96.76 118.24L96.68 118.2L96.6 118.15L96.53 118.1L96.47 118.03L96.41 117.97L96.37 117.89L96.32 117.81L96.29 117.73L96.27 117.64L96.25 117.55L96.25 117.45L96.25 99.19L96.25 99.09L96.27 99L96.29 98.91L96.32 98.83L96.37 98.75L96.41 98.68L96.47 98.61L96.53 98.54L96.6 98.49L96.68 98.44L96.76 98.4L96.84 98.36L96.93 98.34L97.02 98.33L97.12 98.32L115.53 98.32L115.62 98.33L115.71 98.34ZM52.43 98.34L52.52 98.36L52.6 98.4L52.68 98.44L52.76 98.49L52.83 98.54L52.89 98.61L52.95 98.68L53 98.75L53.04 98.83L53.07 98.91L53.1 99L53.11 99.09L53.12 99.19L53.12 117.45L53.11 117.55L53.1 117.64L53.07 117.73L53.04 117.81L53 117.89L52.95 117.97L52.89 118.03L52.83 118.1L52.76 118.15L52.68 118.2L52.6 118.24L52.52 118.28L52.43 118.3L52.34 118.31L52.24 118.32L33.84 118.32L33.74 118.31L33.65 118.3L33.56 118.28L33.48 118.24L33.4 118.2L33.32 118.15L33.25 118.1L33.19 118.03L33.13 117.97L33.08 117.89L33.04 117.81L33.01 117.73L32.98 117.64L32.97 117.55L32.96 117.45L32.96 99.19L32.97 99.09L32.98 99L33.01 98.91L33.04 98.83L33.08 98.75L33.13 98.68L33.19 98.61L33.25 98.54L33.32 98.49L33.4 98.44L33.48 98.4L33.56 98.36L33.65 98.34L33.74 98.33L33.84 98.32L52.24 98.32L52.34 98.33L52.43 98.34ZM31.27 98.34L31.36 98.36L31.44 98.4L31.52 98.44L31.6 98.49L31.67 98.54L31.73 98.61L31.79 98.68L31.84 98.75L31.88 98.83L31.91 98.91L31.94 99L31.95 99.09L31.96 99.19L31.96 117.45L31.95 117.55L31.94 117.64L31.91 117.73L31.88 117.81L31.84 117.89L31.79 117.97L31.73 118.03L31.67 118.1L31.6 118.15L31.52 118.2L31.44 118.24L31.36 118.28L31.27 118.3L31.18 118.31L31.08 118.32L12.67 118.32L12.58 118.31L12.49 118.3L12.4 118.28L12.31 118.24L12.23 118.2L12.16 118.15L12.09 118.1L12.03 118.03L11.97 117.97L11.92 117.89L11.88 117.81L11.85 117.73L11.82 117.64L11.81 117.55L11.8 117.45L11.8 99.19L11.81 99.09L11.82 99L11.85 98.91L11.88 98.83L11.92 98.75L11.97 98.68L12.03 98.61L12.09 98.54L12.16 98.49L12.23 98.44L12.31 98.4L12.4 98.36L12.49 98.34L12.58 98.33L12.67 98.32L31.08 98.32L31.18 98.33L31.27 98.34ZM94.55 98.34L94.64 98.36L94.73 98.4L94.81 98.44L94.88 98.49L94.95 98.54L95.01 98.61L95.07 98.68L95.12 98.75L95.16 98.83L95.19 98.91L95.22 99L95.23 99.09L95.24 99.19L95.24 117.45L95.23 117.55L95.22 117.64L95.19 117.73L95.16 117.81L95.12 117.89L95.07 117.97L95.01 118.03L94.95 118.1L94.88 118.15L94.81 118.2L94.73 118.24L94.64 118.28L94.55 118.3L94.46 118.31L94.37 118.32L75.96 118.32L75.86 118.31L75.77 118.3L75.68 118.28L75.6 118.24L75.52 118.2L75.44 118.15L75.37 118.1L75.31 118.03L75.25 117.97L75.2 117.89L75.16 117.81L75.13 117.73L75.1 117.64L75.09 117.55L75.08 117.45L75.08 99.19L75.09 99.09L75.1 99L75.13 98.91L75.16 98.83L75.2 98.75L75.25 98.68L75.31 98.61L75.37 98.54L75.44 98.49L75.52 98.44L75.6 98.4L75.68 98.36L75.77 98.34L75.86 98.33L75.96 98.32L94.37 98.32L94.46 98.33L94.55 98.34ZM115.51 77.44L115.6 77.47L115.69 77.5L115.77 77.54L115.84 77.59L115.91 77.64L115.97 77.71L116.03 77.78L116.08 77.85L116.12 77.93L116.15 78.01L116.18 78.1L116.19 78.19L116.2 78.29L116.2 96.55L116.19 96.65L116.18 96.74L116.15 96.83L116.12 96.91L116.08 96.99L116.03 97.07L115.97 97.13L115.91 97.2L115.84 97.25L115.77 97.3L115.69 97.34L115.6 97.38L115.51 97.4L115.42 97.42L115.33 97.42L96.92 97.42L96.82 97.42L96.73 97.4L96.64 97.38L96.56 97.34L96.48 97.3L96.4 97.25L96.33 97.2L96.27 97.13L96.21 97.07L96.16 96.99L96.12 96.91L96.09 96.83L96.06 96.74L96.05 96.65L96.04 96.55L96.04 78.29L96.05 78.19L96.06 78.1L96.09 78.01L96.12 77.93L96.16 77.85L96.21 77.78L96.27 77.71L96.33 77.64L96.4 77.59L96.48 77.54L96.56 77.5L96.64 77.47L96.73 77.44L96.82 77.43L96.92 77.42L115.33 77.42L115.42 77.43L115.51 77.44ZM31.07 77.44L31.16 77.47L31.24 77.5L31.32 77.54L31.4 77.59L31.47 77.64L31.53 77.71L31.59 77.78L31.63 77.85L31.68 77.93L31.71 78.01L31.73 78.1L31.75 78.19L31.75 78.29L31.75 96.55L31.75 96.65L31.73 96.74L31.71 96.83L31.68 96.91L31.63 96.99L31.59 97.07L31.53 97.13L31.47 97.2L31.4 97.25L31.32 97.3L31.24 97.34L31.16 97.38L31.07 97.4L30.98 97.42L30.88 97.42L12.47 97.42L12.38 97.42L12.29 97.4L12.2 97.38L12.11 97.34L12.03 97.3L11.96 97.25L11.89 97.2L11.82 97.13L11.77 97.07L11.72 96.99L11.68 96.91L11.64 96.83L11.62 96.74L11.61 96.65L11.6 96.55L11.6 78.29L11.61 78.19L11.62 78.1L11.64 78.01L11.68 77.93L11.72 77.85L11.77 77.78L11.82 77.71L11.89 77.64L11.96 77.59L12.03 77.54L12.11 77.5L12.2 77.47L12.29 77.44L12.38 77.43L12.47 77.42L30.88 77.42L30.98 77.43L31.07 77.44ZM52.23 77.44L52.32 77.47L52.4 77.5L52.48 77.54L52.56 77.59L52.63 77.64L52.69 77.71L52.75 77.78L52.8 77.85L52.84 77.93L52.87 78.01L52.9 78.1L52.91 78.19L52.92 78.29L52.92 96.55L52.91 96.65L52.9 96.74L52.87 96.83L52.84 96.91L52.8 96.99L52.75 97.07L52.69 97.13L52.63 97.2L52.56 97.25L52.48 97.3L52.4 97.34L52.32 97.38L52.23 97.4L52.14 97.42L52.04 97.42L33.63 97.42L33.54 97.42L33.45 97.4L33.36 97.38L33.27 97.34L33.19 97.3L33.12 97.25L33.05 97.2L32.99 97.13L32.93 97.07L32.88 96.99L32.84 96.91L32.81 96.83L32.78 96.74L32.77 96.65L32.76 96.55L32.76 78.29L32.77 78.19L32.78 78.1L32.81 78.01L32.84 77.93L32.88 77.85L32.93 77.78L32.99 77.71L33.05 77.64L33.12 77.59L33.19 77.54L33.27 77.5L33.36 77.47L33.45 77.44L33.54 77.43L33.63 77.42L52.04 77.42L52.14 77.43L52.23 77.44ZM94.35 77.44L94.44 77.47L94.52 77.5L94.6 77.54L94.68 77.59L94.75 77.64L94.81 77.71L94.87 77.78L94.92 77.85L94.96 77.93L94.99 78.01L95.02 78.1L95.03 78.19L95.04 78.29L95.04 96.55L95.03 96.65L95.02 96.74L94.99 96.83L94.96 96.91L94.92 96.99L94.87 97.07L94.81 97.13L94.75 97.2L94.68 97.25L94.6 97.3L94.52 97.34L94.44 97.38L94.35 97.4L94.26 97.42L94.16 97.42L75.76 97.42L75.66 97.42L75.57 97.4L75.48 97.38L75.4 97.34L75.32 97.3L75.24 97.25L75.17 97.2L75.11 97.13L75.05 97.07L75 96.99L74.96 96.91L74.93 96.83L74.9 96.74L74.89 96.65L74.88 96.55L74.88 78.29L74.89 78.19L74.9 78.1L74.93 78.01L74.96 77.93L75 77.85L75.05 77.78L75.11 77.71L75.17 77.64L75.24 77.59L75.32 77.54L75.4 77.5L75.48 77.47L75.57 77.44L75.66 77.43L75.76 77.42L94.16 77.42L94.26 77.43L94.35 77.44ZM115.51 56.74L115.6 56.77L115.69 56.8L115.77 56.84L115.84 56.89L115.91 56.95L115.97 57.01L116.03 57.08L116.08 57.15L116.12 57.23L116.15 57.32L116.18 57.4L116.19 57.5L116.2 57.59L116.2 75.86L116.19 75.95L116.18 76.04L116.15 76.13L116.12 76.21L116.08 76.29L116.03 76.37L115.97 76.44L115.91 76.5L115.84 76.56L115.77 76.6L115.69 76.65L115.6 76.68L115.51 76.7L115.42 76.72L115.33 76.72L96.92 76.72L96.82 76.72L96.73 76.7L96.64 76.68L96.56 76.65L96.48 76.6L96.4 76.56L96.33 76.5L96.27 76.44L96.21 76.37L96.16 76.29L96.12 76.21L96.09 76.13L96.06 76.04L96.05 75.95L96.04 75.86L96.04 57.59L96.05 57.5L96.06 57.4L96.09 57.32L96.12 57.23L96.16 57.15L96.21 57.08L96.27 57.01L96.33 56.95L96.4 56.89L96.48 56.84L96.56 56.8L96.64 56.77L96.73 56.74L96.82 56.73L96.92 56.72L115.33 56.72L115.42 56.73L115.51 56.74ZM52.23 56.74L52.32 56.77L52.4 56.8L52.48 56.84L52.56 56.89L52.63 56.95L52.69 57.01L52.75 57.08L52.8 57.15L52.84 57.23L52.87 57.32L52.9 57.4L52.91 57.5L52.92 57.59L52.92 75.86L52.91 75.95L52.9 76.04L52.87 76.13L52.84 76.21L52.8 76.29L52.75 76.37L52.69 76.44L52.63 76.5L52.56 76.56L52.48 76.6L52.4 76.65L52.32 76.68L52.23 76.7L52.14 76.72L52.04 76.72L33.63 76.72L33.54 76.72L33.45 76.7L33.36 76.68L33.27 76.65L33.19 76.6L33.12 76.56L33.05 76.5L32.99 76.44L32.93 76.37L32.88 76.29L32.84 76.21L32.81 76.13L32.78 76.04L32.77 75.95L32.76 75.86L32.76 57.59L32.77 57.5L32.78 57.4L32.81 57.32L32.84 57.23L32.88 57.15L32.93 57.08L32.99 57.01L33.05 56.95L33.12 56.89L33.19 56.84L33.27 56.8L33.36 56.77L33.45 56.74L33.54 56.73L33.63 56.72L52.04 56.72L52.14 56.73L52.23 56.74ZM31.07 56.74L31.16 56.77L31.24 56.8L31.32 56.84L31.4 56.89L31.47 56.95L31.53 57.01L31.59 57.08L31.63 57.15L31.68 57.23L31.71 57.32L31.73 57.4L31.75 57.5L31.75 57.59L31.75 75.86L31.75 75.95L31.73 76.04L31.71 76.13L31.68 76.21L31.63 76.29L31.59 76.37L31.53 76.44L31.47 76.5L31.4 76.56L31.32 76.6L31.24 76.65L31.16 76.68L31.07 76.7L30.98 76.72L30.88 76.72L12.47 76.72L12.38 76.72L12.29 76.7L12.2 76.68L12.11 76.65L12.03 76.6L11.96 76.56L11.89 76.5L11.82 76.44L11.77 76.37L11.72 76.29L11.68 76.21L11.64 76.13L11.62 76.04L11.61 75.95L11.6 75.86L11.6 57.59L11.61 57.5L11.62 57.4L11.64 57.32L11.68 57.23L11.72 57.15L11.77 57.08L11.82 57.01L11.89 56.95L11.96 56.89L12.03 56.84L12.11 56.8L12.2 56.77L12.29 56.74L12.38 56.73L12.47 56.72L30.88 56.72L30.98 56.73L31.07 56.74ZM94.35 56.74L94.44 56.77L94.52 56.8L94.6 56.84L94.68 56.89L94.75 56.95L94.81 57.01L94.87 57.08L94.92 57.15L94.96 57.23L94.99 57.32L95.02 57.4L95.03 57.5L95.04 57.59L95.04 75.86L95.03 75.95L95.02 76.04L94.99 76.13L94.96 76.21L94.92 76.29L94.87 76.37L94.81 76.44L94.75 76.5L94.68 76.56L94.6 76.6L94.52 76.65L94.44 76.68L94.35 76.7L94.26 76.72L94.16 76.72L75.76 76.72L75.66 76.72L75.57 76.7L75.48 76.68L75.4 76.65L75.32 76.6L75.24 76.56L75.17 76.5L75.11 76.44L75.05 76.37L75 76.29L74.96 76.21L74.93 76.13L74.9 76.04L74.89 75.95L74.88 75.86L74.88 57.59L74.89 57.5L74.9 57.4L74.93 57.32L74.96 57.23L75 57.15L75.05 57.08L75.11 57.01L75.17 56.95L75.24 56.89L75.32 56.84L75.4 56.8L75.48 56.77L75.57 56.74L75.66 56.73L75.76 56.72L94.16 56.72L94.26 56.73L94.35 56.74ZM115.51 36.02L115.6 36.04L115.69 36.08L115.77 36.12L115.84 36.17L115.91 36.22L115.97 36.29L116.03 36.36L116.08 36.43L116.12 36.51L116.15 36.59L116.18 36.68L116.19 36.77L116.2 36.87L116.2 55.13L116.19 55.23L116.18 55.32L116.15 55.41L116.12 55.49L116.08 55.57L116.03 55.64L115.97 55.71L115.91 55.78L115.84 55.83L115.77 55.88L115.69 55.92L115.6 55.96L115.51 55.98L115.42 55.99L115.33 56L96.92 56L96.82 55.99L96.73 55.98L96.64 55.96L96.56 55.92L96.48 55.88L96.4 55.83L96.33 55.78L96.27 55.71L96.21 55.64L96.16 55.57L96.12 55.49L96.09 55.41L96.06 55.32L96.05 55.23L96.04 55.13L96.04 36.87L96.05 36.77L96.06 36.68L96.09 36.59L96.12 36.51L96.16 36.43L96.21 36.36L96.27 36.29L96.33 36.22L96.4 36.17L96.48 36.12L96.56 36.08L96.64 36.04L96.73 36.02L96.82 36.01L96.92 36L115.33 36L115.42 36.01L115.51 36.02ZM31.07 36.02L31.16 36.04L31.24 36.08L31.32 36.12L31.4 36.17L31.47 36.22L31.53 36.29L31.59 36.36L31.63 36.43L31.68 36.51L31.71 36.59L31.73 36.68L31.75 36.77L31.75 36.87L31.75 55.13L31.75 55.23L31.73 55.32L31.71 55.41L31.68 55.49L31.63 55.57L31.59 55.64L31.53 55.71L31.47 55.78L31.4 55.83L31.32 55.88L31.24 55.92L31.16 55.96L31.07 55.98L30.98 55.99L30.88 56L12.47 56L12.38 55.99L12.29 55.98L12.2 55.96L12.11 55.92L12.03 55.88L11.96 55.83L11.89 55.78L11.82 55.71L11.77 55.64L11.72 55.57L11.68 55.49L11.64 55.41L11.62 55.32L11.61 55.23L11.6 55.13L11.6 36.87L11.61 36.77L11.62 36.68L11.64 36.59L11.68 36.51L11.72 36.43L11.77 36.36L11.82 36.29L11.89 36.22L11.96 36.17L12.03 36.12L12.11 36.08L12.2 36.04L12.29 36.02L12.38 36.01L12.47 36L30.88 36L30.98 36.01L31.07 36.02ZM52.23 36.02L52.32 36.04L52.4 36.08L52.48 36.12L52.56 36.17L52.63 36.22L52.69 36.29L52.75 36.36L52.8 36.43L52.84 36.51L52.87 36.59L52.9 36.68L52.91 36.77L52.92 36.87L52.92 55.13L52.91 55.23L52.9 55.32L52.87 55.41L52.84 55.49L52.8 55.57L52.75 55.64L52.69 55.71L52.63 55.78L52.56 55.83L52.48 55.88L52.4 55.92L52.32 55.96L52.23 55.98L52.14 55.99L52.04 56L33.63 56L33.54 55.99L33.45 55.98L33.36 55.96L33.27 55.92L33.19 55.88L33.12 55.83L33.05 55.78L32.99 55.71L32.93 55.64L32.88 55.57L32.84 55.49L32.81 55.41L32.78 55.32L32.77 55.23L32.76 55.13L32.76 36.87L32.77 36.77L32.78 36.68L32.81 36.59L32.84 36.51L32.88 36.43L32.93 36.36L32.99 36.29L33.05 36.22L33.12 36.17L33.19 36.12L33.27 36.08L33.36 36.04L33.45 36.02L33.54 36.01L33.63 36L52.04 36L52.14 36.01L52.23 36.02ZM94.35 36.02L94.44 36.04L94.52 36.08L94.6 36.12L94.68 36.17L94.75 36.22L94.81 36.29L94.87 36.36L94.92 36.43L94.96 36.51L94.99 36.59L95.02 36.68L95.03 36.77L95.04 36.87L95.04 55.13L95.03 55.23L95.02 55.32L94.99 55.41L94.96 55.49L94.92 55.57L94.87 55.64L94.81 55.71L94.75 55.78L94.68 55.83L94.6 55.88L94.52 55.92L94.44 55.96L94.35 55.98L94.26 55.99L94.16 56L75.76 56L75.66 55.99L75.57 55.98L75.48 55.96L75.4 55.92L75.32 55.88L75.24 55.83L75.17 55.78L75.11 55.71L75.05 55.64L75 55.57L74.96 55.49L74.93 55.41L74.9 55.32L74.89 55.23L74.88 55.13L74.88 36.87L74.89 36.77L74.9 36.68L74.93 36.59L74.96 36.51L75 36.43L75.05 36.36L75.11 36.29L75.17 36.22L75.24 36.17L75.32 36.12L75.4 36.08L75.48 36.04L75.57 36.02L75.66 36.01L75.76 36L94.16 36L94.26 36.01L94.35 36.02Z" id="cOpJzyeEI"></path><path d="M73.01 82.34L73.09 82.37L73.18 82.4L73.25 82.44L73.33 82.49L73.4 82.55L73.46 82.61L73.51 82.68L73.56 82.75L73.6 82.83L73.63 82.92L73.66 83L73.67 83.1L73.68 83.19L73.68 101.46L73.67 101.55L73.66 101.64L73.63 101.73L73.6 101.81L73.56 101.89L73.51 101.97L73.46 102.04L73.4 102.1L73.33 102.16L73.25 102.2L73.18 102.25L73.09 102.28L73.01 102.3L72.92 102.32L72.82 102.32L54.85 102.32L54.76 102.32L54.67 102.3L54.58 102.28L54.5 102.25L54.42 102.2L54.35 102.16L54.28 102.1L54.22 102.04L54.16 101.97L54.11 101.89L54.07 101.81L54.04 101.73L54.02 101.64L54 101.55L54 101.46L54 83.19L54 83.1L54.02 83L54.04 82.92L54.07 82.83L54.11 82.75L54.16 82.68L54.22 82.61L54.28 82.55L54.35 82.49L54.42 82.44L54.5 82.4L54.58 82.37L54.67 82.34L54.76 82.33L54.85 82.32L72.82 82.32L72.92 82.33L73.01 82.34ZM72.81 61.44L72.9 61.47L72.98 61.5L73.06 61.54L73.13 61.59L73.2 61.65L73.26 61.71L73.32 61.78L73.36 61.85L73.4 61.93L73.44 62.01L73.46 62.1L73.47 62.19L73.48 62.29L73.48 80.56L73.47 80.65L73.46 80.74L73.44 80.83L73.4 80.91L73.36 80.99L73.32 81.07L73.26 81.14L73.2 81.2L73.13 81.25L73.06 81.3L72.98 81.34L72.9 81.38L72.81 81.4L72.72 81.42L72.63 81.42L54.65 81.42L54.56 81.42L54.47 81.4L54.38 81.38L54.3 81.34L54.22 81.3L54.15 81.25L54.08 81.2L54.02 81.14L53.96 81.07L53.92 80.99L53.88 80.91L53.84 80.83L53.82 80.74L53.81 80.65L53.8 80.56L53.8 62.29L53.81 62.19L53.82 62.1L53.84 62.01L53.88 61.93L53.92 61.85L53.96 61.78L54.02 61.71L54.08 61.65L54.15 61.59L54.22 61.54L54.3 61.5L54.38 61.47L54.47 61.44L54.56 61.43L54.65 61.42L72.63 61.42L72.72 61.43L72.81 61.44ZM73.01 40.74L73.09 40.77L73.18 40.8L73.25 40.84L73.33 40.89L73.4 40.95L73.46 41.01L73.51 41.08L73.56 41.15L73.6 41.23L73.63 41.32L73.66 41.4L73.67 41.5L73.68 41.59L73.68 59.86L73.67 59.95L73.66 60.04L73.63 60.13L73.6 60.22L73.56 60.29L73.51 60.37L73.46 60.44L73.4 60.5L73.33 60.56L73.25 60.61L73.18 60.65L73.09 60.68L73.01 60.7L72.92 60.72L72.82 60.72L54.85 60.72L54.76 60.72L54.67 60.7L54.58 60.68L54.5 60.65L54.42 60.61L54.35 60.56L54.28 60.5L54.22 60.44L54.16 60.37L54.11 60.29L54.07 60.22L54.04 60.13L54.02 60.04L54 59.95L54 59.86L54 41.59L54 41.5L54.02 41.4L54.04 41.32L54.07 41.23L54.11 41.15L54.16 41.08L54.22 41.01L54.28 40.95L54.35 40.89L54.42 40.84L54.5 40.8L54.58 40.77L54.67 40.74L54.76 40.73L54.85 40.72L72.82 40.72L72.92 40.73L73.01 40.74ZM72.81 20.02L72.9 20.04L72.98 20.08L73.06 20.12L73.13 20.17L73.2 20.22L73.26 20.29L73.32 20.36L73.36 20.43L73.4 20.51L73.44 20.59L73.46 20.68L73.47 20.77L73.48 20.87L73.48 39.13L73.47 39.23L73.46 39.32L73.44 39.41L73.4 39.49L73.36 39.57L73.32 39.65L73.26 39.71L73.2 39.78L73.13 39.83L73.06 39.88L72.98 39.92L72.9 39.96L72.81 39.98L72.72 39.99L72.63 40L54.65 40L54.56 39.99L54.47 39.98L54.38 39.96L54.3 39.92L54.22 39.88L54.15 39.83L54.08 39.78L54.02 39.71L53.96 39.65L53.92 39.57L53.88 39.49L53.84 39.41L53.82 39.32L53.81 39.23L53.8 39.13L53.8 20.87L53.81 20.77L53.82 20.68L53.84 20.59L53.88 20.51L53.92 20.43L53.96 20.36L54.02 20.29L54.08 20.22L54.15 20.17L54.22 20.12L54.3 20.08L54.38 20.04L54.47 20.02L54.56 20.01L54.65 20L72.63 20L72.72 20.01L72.81 20.02Z" id="d1I4b4uU8V"></path></defs><g><g><g><use xlink:href="#aTIF2U2qQ" opacity="1" fill="#192136" fill-opacity="1"></use><g><use xlink:href="#aTIF2U2qQ" opacity="1" fill-opacity="0" stroke="#000000" stroke-width="1" stroke-opacity="0"></use></g></g><g><use xlink:href="#am52wKYKV" opacity="1" fill="#8d9ecb" fill-opacity="1"></use><g><use xlink:href="#am52wKYKV" opacity="1" fill-opacity="0" stroke="#000000" stroke-width="1" stroke-opacity="0"></use></g></g><g><use xlink:href="#cOpJzyeEI" opacity="1" fill="#2c3b62" fill-opacity="1"></use><g><use xlink:href="#cOpJzyeEI" opacity="1" fill-opacity="0" stroke="#000000" stroke-width="1" stroke-opacity="0"></use></g></g><g><g><filter id="shadow15851433" x="40.8" y="7" width="46.08" height="109.32" filterUnits="userSpaceOnUse" primitiveUnits="userSpaceOnUse"><feFlood></feFlood><feComposite in2="SourceAlpha" operator="in"></feComposite><feGaussianBlur stdDeviation="1.41"></feGaussianBlur><feOffset dx="-0.2" dy="-1" result="afterOffset"></feOffset><feFlood flood-color="#ffffff" flood-opacity="0.19"></feFlood><feComposite in2="afterOffset" operator="in"></feComposite><feMorphology operator="dilate" radius="3"></feMorphology><feComposite in2="SourceAlpha" operator="out"></feComposite></filter><path d="M73.01 82.34L73.09 82.37L73.18 82.4L73.25 82.44L73.33 82.49L73.4 82.55L73.46 82.61L73.51 82.68L73.56 82.75L73.6 82.83L73.63 82.92L73.66 83L73.67 83.1L73.68 83.19L73.68 101.46L73.67 101.55L73.66 101.64L73.63 101.73L73.6 101.81L73.56 101.89L73.51 101.97L73.46 102.04L73.4 102.1L73.33 102.16L73.25 102.2L73.18 102.25L73.09 102.28L73.01 102.3L72.92 102.32L72.82 102.32L54.85 102.32L54.76 102.32L54.67 102.3L54.58 102.28L54.5 102.25L54.42 102.2L54.35 102.16L54.28 102.1L54.22 102.04L54.16 101.97L54.11 101.89L54.07 101.81L54.04 101.73L54.02 101.64L54 101.55L54 101.46L54 83.19L54 83.1L54.02 83L54.04 82.92L54.07 82.83L54.11 82.75L54.16 82.68L54.22 82.61L54.28 82.55L54.35 82.49L54.42 82.44L54.5 82.4L54.58 82.37L54.67 82.34L54.76 82.33L54.85 82.32L72.82 82.32L72.92 82.33L73.01 82.34ZM72.81 61.44L72.9 61.47L72.98 61.5L73.06 61.54L73.13 61.59L73.2 61.65L73.26 61.71L73.32 61.78L73.36 61.85L73.4 61.93L73.44 62.01L73.46 62.1L73.47 62.19L73.48 62.29L73.48 80.56L73.47 80.65L73.46 80.74L73.44 80.83L73.4 80.91L73.36 80.99L73.32 81.07L73.26 81.14L73.2 81.2L73.13 81.25L73.06 81.3L72.98 81.34L72.9 81.38L72.81 81.4L72.72 81.42L72.63 81.42L54.65 81.42L54.56 81.42L54.47 81.4L54.38 81.38L54.3 81.34L54.22 81.3L54.15 81.25L54.08 81.2L54.02 81.14L53.96 81.07L53.92 80.99L53.88 80.91L53.84 80.83L53.82 80.74L53.81 80.65L53.8 80.56L53.8 62.29L53.81 62.19L53.82 62.1L53.84 62.01L53.88 61.93L53.92 61.85L53.96 61.78L54.02 61.71L54.08 61.65L54.15 61.59L54.22 61.54L54.3 61.5L54.38 61.47L54.47 61.44L54.56 61.43L54.65 61.42L72.63 61.42L72.72 61.43L72.81 61.44ZM73.01 40.74L73.09 40.77L73.18 40.8L73.25 40.84L73.33 40.89L73.4 40.95L73.46 41.01L73.51 41.08L73.56 41.15L73.6 41.23L73.63 41.32L73.66 41.4L73.67 41.5L73.68 41.59L73.68 59.86L73.67 59.95L73.66 60.04L73.63 60.13L73.6 60.22L73.56 60.29L73.51 60.37L73.46 60.44L73.4 60.5L73.33 60.56L73.25 60.61L73.18 60.65L73.09 60.68L73.01 60.7L72.92 60.72L72.82 60.72L54.85 60.72L54.76 60.72L54.67 60.7L54.58 60.68L54.5 60.65L54.42 60.61L54.35 60.56L54.28 60.5L54.22 60.44L54.16 60.37L54.11 60.29L54.07 60.22L54.04 60.13L54.02 60.04L54 59.95L54 59.86L54 41.59L54 41.5L54.02 41.4L54.04 41.32L54.07 41.23L54.11 41.15L54.16 41.08L54.22 41.01L54.28 40.95L54.35 40.89L54.42 40.84L54.5 40.8L54.58 40.77L54.67 40.74L54.76 40.73L54.85 40.72L72.82 40.72L72.92 40.73L73.01 40.74ZM72.81 20.02L72.9 20.04L72.98 20.08L73.06 20.12L73.13 20.17L73.2 20.22L73.26 20.29L73.32 20.36L73.36 20.43L73.4 20.51L73.44 20.59L73.46 20.68L73.47 20.77L73.48 20.87L73.48 39.13L73.47 39.23L73.46 39.32L73.44 39.41L73.4 39.49L73.36 39.57L73.32 39.65L73.26 39.71L73.2 39.78L73.13 39.83L73.06 39.88L72.98 39.92L72.9 39.96L72.81 39.98L72.72 39.99L72.63 40L54.65 40L54.56 39.99L54.47 39.98L54.38 39.96L54.3 39.92L54.22 39.88L54.15 39.83L54.08 39.78L54.02 39.71L53.96 39.65L53.92 39.57L53.88 39.49L53.84 39.41L53.82 39.32L53.81 39.23L53.8 39.13L53.8 20.87L53.81 20.77L53.82 20.68L53.84 20.59L53.88 20.51L53.92 20.43L53.96 20.36L54.02 20.29L54.08 20.22L54.15 20.17L54.22 20.12L54.3 20.08L54.38 20.04L54.47 20.02L54.56 20.01L54.65 20L72.63 20L72.72 20.01L72.81 20.02Z" id="e6pJEXkbyr" fill="white" fill-opacity="1" filter="url(#shadow15851433)"></path></g><use xlink:href="#d1I4b4uU8V" opacity="1" fill="#192136" fill-opacity="1"></use></g></g></g></svg>